<svg xmlns="http://www.w3.org/2000/svg" xmlns:xlink="http://www.w3.org/1999/xlink" width="200" zoomAndPan="magnify" viewBox="0 0 150 84.375" height="112.5" preserveAspectRatio="xMidYMid meet" version="1.0"><defs><clipPath id="76f06cfcbf"><path d="M32.332 0H71.771v33.854H32.332Zm0 0" clip-rule="nonzero"/></clipPath></defs><path fill="#0ff2b2" d="M56.226 46.405H53.415c-2.319 0 -4.216 1.898 -4.216 4.218v5.623c0 2.32 1.897 4.218 4.216 4.218h2.811c0.773 0 1.405 -0.633 1.405 -1.406V47.811c0 -0.773 -0.632 -1.406 -1.405 -1.406m0 0" fill-opacity="1" fill-rule="nonzero"/><path fill="#0ff2b2" d="M95.579 46.405h-2.811c-0.773 0 -1.405 0.633 -1.405 1.406v11.247c0 0.773 0.632 1.406 1.405 1.406h2.811c2.319 0 4.216 -1.898 4.216 -4.218v-5.623c0 -2.32 -1.897 -4.218 -4.216 -4.218m0 0" fill-opacity="1" fill-rule="nonzero"/><path fill="#0ff2b2" d="M64.659 64.681h19.676q0.139 0 0.274 0.027 0.135 0.027 0.264 0.08a1.406 1.406 0 0 1 0.631 0.518q0.077 0.115 0.13 0.243 0.053 0.128 0.08 0.264 0.027 0.136 0.027 0.274v5.623q0 0.138 -0.027 0.274 -0.027 0.135 -0.08 0.264a1.416 1.416 0 0 1 -0.304 0.456 1.406 1.406 0 0 1 -0.994 0.412H64.659q-0.139 0 -0.274 -0.027a1.375 1.375 0 0 1 -0.264 -0.08 1.396 1.396 0 0 1 -0.243 -0.13 1.458 1.458 0 0 1 -0.213 -0.175 1.417 1.417 0 0 1 -0.175 -0.213 1.396 1.396 0 0 1 -0.21 -0.507 1.417 1.417 0 0 1 -0.027 -0.274v-5.623a1.406 1.406 0 0 1 0.107 -0.538 1.417 1.417 0 0 1 0.305 -0.456 1.396 1.396 0 0 1 0.213 -0.175 1.396 1.396 0 0 1 0.243 -0.13q0.128 -0.053 0.264 -0.08a1.406 1.406 0 0 1 0.274 -0.027m0 0" fill-opacity="1" fill-rule="nonzero"/><path fill="#0ff2b2" d="M81.524 33.752H67.469c-2.319 0 -4.216 1.898 -4.216 4.218v2.812c0 0.773 0.632 1.406 1.406 1.406h19.676c0.773 0 1.405 -0.633 1.405 -1.406v-2.812c0 -2.32 -1.897 -4.218 -4.216 -4.218m0 0" fill-opacity="1" fill-rule="nonzero"/><path fill="#f1f2f2" d="M59.036 39.376h30.92a4.25 4.25 0 0 1 0.823 0.081q0.203 0.041 0.402 0.101 0.198 0.06 0.389 0.14a4.167 4.167 0 0 1 0.374 0.177 4.167 4.167 0 0 1 0.355 0.213 4.063 4.063 0 0 1 0.333 0.247q0.16 0.131 0.307 0.278a4.271 4.271 0 0 1 0.278 0.307 4.063 4.063 0 0 1 0.246 0.333 4.238 4.238 0 0 1 0.529 1.119q0.06 0.198 0.101 0.402a4.208 4.208 0 0 1 0.081 0.823v19.682a4.271 4.271 0 0 1 -0.081 0.823 4.375 4.375 0 0 1 -0.101 0.402 4.219 4.219 0 0 1 -0.317 0.764 4.167 4.167 0 0 1 -0.213 0.355 4.063 4.063 0 0 1 -0.246 0.332 4.271 4.271 0 0 1 -0.278 0.307 4.167 4.167 0 0 1 -0.307 0.278 4.208 4.208 0 0 1 -0.687 0.459 4.167 4.167 0 0 1 -0.374 0.177 4.271 4.271 0 0 1 -0.389 0.14q-0.198 0.06 -0.402 0.1a4.208 4.208 0 0 1 -0.823 0.081H59.036a4.24 4.24 0 0 1 -0.822 -0.081 4.375 4.375 0 0 1 -0.402 -0.101 4.219 4.219 0 0 1 -0.764 -0.317 4.167 4.167 0 0 1 -0.355 -0.213 4.212 4.212 0 0 1 -0.917 -0.831 4.208 4.208 0 0 1 -0.636 -1.062 4.271 4.271 0 0 1 -0.14 -0.389 4.205 4.205 0 0 1 -0.181 -1.224V43.593a4.271 4.271 0 0 1 0.081 -0.823q0.041 -0.203 0.101 -0.402a4.238 4.238 0 0 1 0.776 -1.451 4.212 4.212 0 0 1 2.846 -1.522 4.271 4.271 0 0 1 0.413 -0.02m0 0" fill-opacity="1" fill-rule="nonzero"/><path fill="#6b71f2" d="M60.442 70.304h28.11a4.205 4.205 0 0 1 1.988 0.498 4.167 4.167 0 0 1 0.355 0.213 4.063 4.063 0 0 1 0.332 0.247q0.16 0.131 0.307 0.278a4.271 4.271 0 0 1 0.278 0.306 4.271 4.271 0 0 1 0.459 0.688 4.15 4.15 0 0 1 0.316 0.764c0.04 0.132 0.074 0.266 0.101 0.402a4.208 4.208 0 0 1 0.081 0.823v5.623a4.271 4.271 0 0 1 -0.081 0.823 4.375 4.375 0 0 1 -0.101 0.402 4.271 4.271 0 0 1 -0.317 0.764 4.167 4.167 0 0 1 -0.213 0.355 4.167 4.167 0 0 1 -0.524 0.639 4.167 4.167 0 0 1 -0.307 0.278 4.208 4.208 0 0 1 -0.687 0.459 4.15 4.15 0 0 1 -0.764 0.316 4.271 4.271 0 0 1 -0.401 0.101 4.208 4.208 0 0 1 -0.823 0.081H60.442a4.24 4.24 0 0 1 -0.822 -0.081 4.271 4.271 0 0 1 -0.791 -0.24 4.167 4.167 0 0 1 -0.374 -0.177 4.167 4.167 0 0 1 -0.687 -0.459 4.167 4.167 0 0 1 -0.307 -0.278 4.167 4.167 0 0 1 -0.278 -0.307 4.271 4.271 0 0 1 -0.247 -0.332 4.246 4.246 0 0 1 -0.529 -1.119 4.205 4.205 0 0 1 -0.181 -1.224V74.522a4.25 4.25 0 0 1 0.081 -0.823q0.041 -0.203 0.101 -0.402a4.238 4.238 0 0 1 0.317 -0.764 4.271 4.271 0 0 1 0.212 -0.355 4.212 4.212 0 0 1 0.831 -0.917 4.181 4.181 0 0 1 0.687 -0.459 4.167 4.167 0 0 1 0.374 -0.177 4.271 4.271 0 0 1 0.389 -0.14 4.205 4.205 0 0 1 1.224 -0.181m0 0" fill-opacity="1" fill-rule="nonzero"/><g clip-path="url(#76f06cfcbf)"><path fill="#6b71f2" d="M66.064 0.012H37.954c-3.106 0 -5.622 2.517 -5.622 5.623v16.87c0 3.107 2.516 5.623 5.622 5.623H52.923l6.648 5.314c0.253 0.197 0.562 0.309 0.871 0.309 0.211 0 0.422 -0.042 0.605 -0.14 0.492 -0.239 0.801 -0.731 0.801 -1.266V28.129h4.217c3.106 0 5.622 -2.516 5.622 -5.623V5.636c0 -3.107 -2.516 -5.623 -5.622 -5.623m0 0" fill-opacity="1" fill-rule="nonzero"/></g><path fill="#0a0f26" d="M77.729 58.045s-1.11 1.013 -3.233 1.013c-2.122 0 -3.19 -0.97 -3.219 -0.998a1.399 1.399 0 0 0 -1.982 0 1.4 1.4 0 0 0 0 1.982c0.183 0.183 1.912 1.814 5.214 1.814s5.032 -1.63 5.214 -1.814c0.548 -0.548 0.534 -1.406 0 -1.968 -0.534 -0.548 -1.42 -0.562 -1.982 -0.042Zm0 0" fill-opacity="1" fill-rule="nonzero"/><path fill="#0a0f26" d="M87.146 49.217q0 0.207 -0.02 0.414a4.208 4.208 0 0 1 -0.301 1.2 4.063 4.063 0 0 1 -0.177 0.374 4.205 4.205 0 0 1 -0.459 0.687 4.212 4.212 0 0 1 -2.846 1.522q-0.206 0.02 -0.413 0.02a4.271 4.271 0 0 1 -0.823 -0.081 4.271 4.271 0 0 1 -0.401 -0.1 4.219 4.219 0 0 1 -0.764 -0.317 4.167 4.167 0 0 1 -0.355 -0.213 4.212 4.212 0 0 1 -0.917 -0.831 4.208 4.208 0 0 1 -0.459 -0.687 4.188 4.188 0 0 1 -0.316 -0.764 4.205 4.205 0 0 1 -0.181 -1.224 4.205 4.205 0 0 1 0.181 -1.224c0.04 -0.132 0.087 -0.262 0.139 -0.39a4.24 4.24 0 0 1 0.39 -0.729 4.212 4.212 0 0 1 0.524 -0.639 4.213 4.213 0 0 1 2.568 -1.215 4.271 4.271 0 0 1 0.413 -0.02 4.271 4.271 0 0 1 0.823 0.081c0.135 0.027 0.269 0.061 0.401 0.1a4.219 4.219 0 0 1 0.764 0.317 4.167 4.167 0 0 1 0.355 0.213 4.212 4.212 0 0 1 0.639 0.524 4.208 4.208 0 0 1 0.524 0.639 4.375 4.375 0 0 1 0.213 0.355 4.167 4.167 0 0 1 0.177 0.374 4.167 4.167 0 0 1 0.14 0.39q0.06 0.198 0.1 0.402a4.208 4.208 0 0 1 0.081 0.823m0 0" fill-opacity="1" fill-rule="nonzero"/><path fill="#0a0f26" d="M70.28 49.217a4.271 4.271 0 0 1 -0.081 0.823 4.271 4.271 0 0 1 -0.101 0.402 4.219 4.219 0 0 1 -0.317 0.764 4.167 4.167 0 0 1 -0.459 0.687 4.212 4.212 0 0 1 -2.846 1.522 4.271 4.271 0 0 1 -0.413 0.02 4.25 4.25 0 0 1 -0.823 -0.081 4.271 4.271 0 0 1 -0.401 -0.1 4.238 4.238 0 0 1 -1.119 -0.529 4.063 4.063 0 0 1 -0.333 -0.247 4.167 4.167 0 0 1 -0.306 -0.278 4.167 4.167 0 0 1 -0.278 -0.307 4.063 4.063 0 0 1 -0.247 -0.332 4.167 4.167 0 0 1 -0.39 -0.729 4.063 4.063 0 0 1 -0.139 -0.389 4.167 4.167 0 0 1 -0.1 -0.402 4.208 4.208 0 0 1 -0.081 -0.823q0 -0.207 0.02 -0.413c0.014 -0.138 0.034 -0.274 0.061 -0.409q0.04 -0.203 0.1 -0.402a4.167 4.167 0 0 1 0.316 -0.764 4.271 4.271 0 0 1 0.213 -0.355 4.212 4.212 0 0 1 0.524 -0.639 4.167 4.167 0 0 1 0.306 -0.278 4.063 4.063 0 0 1 0.333 -0.247 4.238 4.238 0 0 1 1.119 -0.529 4.205 4.205 0 0 1 1.224 -0.181 4.24 4.24 0 0 1 0.822 0.081c0.136 0.027 0.269 0.061 0.402 0.1a4.219 4.219 0 0 1 0.764 0.317 4.167 4.167 0 0 1 0.355 0.213 4.212 4.212 0 0 1 0.639 0.524 4.208 4.208 0 0 1 0.524 0.639 4.271 4.271 0 0 1 0.213 0.355 4.24 4.24 0 0 1 0.316 0.764q0.06 0.198 0.101 0.402a4.208 4.208 0 0 1 0.081 0.823m0 0" fill-opacity="1" fill-rule="nonzero"/><path fill="#0ff2b2" d="M113.569 3.26c-2.01 -2.095 -4.68 -3.248 -7.533 -3.248 -2.853 0 -5.523 1.153 -7.533 3.248 -0.042 0.042 -0.07 0.085 -0.112 0.113 -0.042 -0.042 -0.07 -0.085 -0.112 -0.113 -2.01 -2.095 -4.68 -3.248 -7.533 -3.248 -2.853 0 -5.524 1.153 -7.533 3.248 -4.118 4.274 -4.118 11.247 0 15.535l14.167 14.536c0.267 0.267 0.632 0.422 1.012 0.422s0.745 -0.155 1.012 -0.421l14.167 -14.551c4.118 -4.274 4.118 -11.247 0 -15.52m0 0" fill-opacity="1" fill-rule="nonzero"/><path fill="#0a0f26" d="M98.39 22.506h-0.056c-0.52 -0.014 -0.97 -0.324 -1.209 -0.773l-2.965 -5.919 -1.56 3.107c-0.239 0.478 -0.731 0.773 -1.251 0.773h-9.838c-0.773 0 -1.405 -0.633 -1.405 -1.406s0.633 -1.406 1.405 -1.406h8.967l2.417 -4.85c0.478 -0.956 2.038 -0.956 2.516 0l3.078 6.144 2.895 -4.836c0.253 -0.408 0.689 -0.675 1.167 -0.689 0.506 -0.028 0.942 0.225 1.209 0.632l2.389 3.585h9.079c0.773 0 1.406 0.632 1.406 1.406 0 0.773 -0.632 1.406 -1.405 1.406h-9.838c-0.464 0 -0.914 -0.239 -1.167 -0.633l-1.574 -2.376 -3.078 5.131c-0.253 0.421 -0.717 0.689 -1.209 0.689Zm0 0" fill-opacity="1" fill-rule="nonzero"/><path fill="#ffffff" d="M50.604 11.259H42.171c-0.773 0 -1.405 -0.633 -1.405 -1.406s0.632 -1.406 1.405 -1.406h8.433c0.773 0 1.405 0.633 1.405 1.406s-0.633 1.406 -1.405 1.406m0 0" fill-opacity="1" fill-rule="nonzero"/><path fill="#ffffff" d="M61.847 19.694H42.171c-0.773 0 -1.405 -0.633 -1.405 -1.406s0.632 -1.406 1.405 -1.406h19.676c0.773 0 1.406 0.633 1.406 1.406s-0.633 1.406 -1.406 1.406m0 0" fill-opacity="1" fill-rule="nonzero"/></svg>