<svg xmlns="http://www.w3.org/2000/svg" xmlns:xlink="http://www.w3.org/1999/xlink" width="100" zoomAndPan="magnify" viewBox="0 0 75 42.188" height="56.25" preserveAspectRatio="xMidYMid meet" version="1.0"><path fill="#74ba9c" d="M56.342 5.08C55.754 2.874 52.998 0.892 49.994 0.626 43.09 0.014 27.39 0.136 23.974 0.682c-1.848 0.298 -5.554 1.11 -6.066 7.4 -0.388 4.724 -0.816 16.102 -0.002 22.71 0.5 4.064 2.982 5.326 4.51 5.624 1.92 0.376 3.898 0.39 5.84 0.52 0.168 2.788 -0.83 4.56 -1.668 5.244 3.094 -0.434 5.366 -3.224 5.934 -4.994 4.106 0.208 14.088 0.176 18.534 -0.682 4.958 -0.956 5.556 -3.818 5.778 -5.934 0.476 -4.446 1.072 -19.638 -0.492 -25.49m0 0" fill-opacity="1" fill-rule="nonzero"/><path fill="#2d323f" d="M52.134 17.746q-0.056 -0.548 -0.332 -1.026a1.6 1.6 0 0 0 -0.39 -0.412 1.6 1.6 0 0 0 -0.516 -0.24q-0.066 -0.02 -0.14 -0.038c-0.124 -1.284 -0.29 -2.568 -0.642 -3.812 -0.28 -0.992 -0.668 -2.028 -1.464 -2.722 -0.854 -0.738 -1.972 -0.97 -3.046 -1.166a40 40 0 0 0 -4.046 -0.514 54 54 0 0 0 -3.814 -0.17l-0.04 -1.142c-0.014 -0.38 -0.15 -0.92 -0.454 -0.856 -0.254 0.166 -0.348 1.012 -0.364 1.998q-1.888 0.01 -3.778 0.164a30 30 0 0 0 -3.498 0.468c-1.128 0.228 -2.272 0.574 -3.164 1.338 -0.65 0.56 -1.08 1.342 -1.372 2.136 -0.43 1.166 -0.594 2.426 -0.69 3.66l-0.03 0.45c-0.892 0.214 -1.336 0.644 -1.608 1.226a4.2 4.2 0 0 0 -0.346 1.398c-0.07 1.268 -0.036 2.702 0.348 3.88 0.288 0.88 0.952 1.5 2.018 1.734a20 20 0 0 0 0.538 3.596c0.196 0.734 0.5 1.384 1.088 1.89 0.708 0.606 1.616 0.886 2.518 1.076a16 16 0 0 0 2.558 0.316 1.2 1.2 0 0 0 0.078 0.358 0.5 0.5 0 0 0 0.142 0.184q0.046 0.036 0.1 0.06t0.112 0.034c0.29 0.058 1.272 0.17 1.882 -0.024a0.6 0.6 0 0 0 0.228 -0.114 0.6 0.6 0 0 0 0.14 -0.254 2.6 2.6 0 0 0 0.058 -0.7c-0.02 -0.198 -0.058 -0.35 -0.218 -0.45a0.8 0.8 0 0 0 -0.392 -0.092 24 24 0 0 0 -1.37 -0.044q-0.196 -0.014 -0.384 0.046a0.6 0.6 0 0 0 -0.14 0.092q-0.064 0.054 -0.114 0.124a0.66 0.66 0 0 0 -0.116 0.312 16 16 0 0 1 -2.07 -0.226c-0.848 -0.152 -1.756 -0.36 -2.472 -0.866 -0.62 -0.44 -0.95 -1.036 -1.148 -1.752a15 15 0 0 1 -0.406 -2.22q-0.076 -0.628 -0.13 -1.268 0.368 0.038 0.738 0.026l0.772 -8.468a10 10 0 0 0 -1.834 0.03 15.6 15.6 0 0 1 0.464 -3.13c0.212 -0.782 0.542 -1.592 1.05 -2.194 0.686 -0.818 1.72 -1.24 2.738 -1.482a24 24 0 0 1 3.17 -0.508 48 48 0 0 1 4.538 -0.234c0 0.712 0.044 1.442 0.086 2.008l0.864 -0.056 -0.068 -1.95q1.302 0.014 2.6 0.086c1.342 0.076 2.682 0.198 4.01 0.396q0.928 0.134 1.846 0.328a5.4 5.4 0 0 1 1.468 0.498c0.82 0.444 1.306 1.204 1.618 2.062 0.46 1.258 0.672 2.594 0.818 3.924 0.016 0.14 0.028 0.292 0.042 0.438a7 7 0 0 0 -1.63 0.026l-0.726 8.37a16 16 0 0 0 2.474 -0.28c0.658 -0.14 1.158 -0.78 1.422 -1.45a9 9 0 0 0 0.454 -2.212 16 16 0 0 0 -0.032 -2.668m0 0" fill-opacity="1" fill-rule="nonzero"/><path fill="#e9f4ef" d="M48.536 25.376c-0.342 1.452 -1.054 2.194 -2.296 2.608 -3.814 1.272 -13.226 0.992 -16.61 0.338 -1.316 -0.254 -2.724 -0.98 -3.144 -2.222 -0.864 -1.884 -0.948 -7.246 -0.784 -9.6 0.208 -2.994 0.606 -4.68 2.544 -5.492 1.232 -0.516 3.716 -0.932 4.932 -1.026a57 57 0 0 1 10.69 0.168c1.46 0.16 3.036 0.44 4.024 1.528 0.954 1.05 1.11 2.584 1.156 4.002 0.114 3.448 0.014 7.462 -0.508 9.698M35.934 6.212c0.734 0.026 1.93 0.03 2.762 0.012q0.374 0 0.746 -0.062c0.342 -0.082 0.468 -0.42 0.5 -0.776 0.026 -0.268 0 -0.728 -0.28 -0.84 -0.648 -0.208 -2.748 -0.272 -4.056 0a1.6 1.6 0 0 0 -0.616 0.264c-0.232 0.17 -0.25 0.548 -0.184 0.826 0.116 0.482 0.604 0.552 1.132 0.57Zm0 0" fill-opacity="1" fill-rule="nonzero"/><path fill="#2d323f" d="M39.608 21.934a2 2 0 0 1 -0.042 0.194 2 2 0 0 1 -0.058 0.19 2 2 0 0 1 -0.166 0.362 2 2 0 0 1 -0.106 0.168 2 2 0 0 1 -0.12 0.158 2 2 0 0 1 -0.28 0.284 2 2 0 0 1 -0.158 0.122 2 2 0 0 1 -0.168 0.108 2.2 2.2 0 0 1 -0.744 0.276 2.4 2.4 0 0 1 -0.596 0.03 2 2 0 0 1 -0.198 -0.024 2 2 0 0 1 -0.386 -0.1 2 2 0 0 1 -0.184 -0.074 2 2 0 0 1 -0.178 -0.09 2.2 2.2 0 0 1 -0.476 -0.36 2 2 0 0 1 -0.258 -0.302 2 2 0 0 1 -0.108 -0.168 2 2 0 0 1 -0.172 -0.36 2 2 0 0 1 -0.106 -0.384c-0.064 -0.342 0.458 -0.488 0.524 -0.14 0.154 0.814 0.896 1.48 1.74 1.472s1.572 -0.688 1.71 -1.506c0.058 -0.35 0.584 -0.202 0.524 0.14m-7.01 -5.976a2 2 0 0 0 -0.84 -0.022c-0.746 0.23 -1.052 0.964 -1.008 1.744q0.008 0.182 0.08 0.348a1 1 0 0 0 0.2 0.296c0.502 0.526 1.436 0.674 1.994 0.212l0.106 -0.098q0.05 -0.052 0.096 -0.108t0.086 -0.116l0.076 -0.124a2 2 0 0 0 0.116 -0.264 2 2 0 0 0 0.068 -0.282 2 2 0 0 0 0.016 -0.288 1.6 1.6 0 0 0 -0.124 -0.562l-0.062 -0.13 -0.074 -0.124A1.2 1.2 0 0 0 33 16.13a1.2 1.2 0 0 0 -0.41 -0.174m11.122 0.488a1.2 1.2 0 0 0 -0.326 -0.312 1.2 1.2 0 0 0 -0.416 -0.174 1.9 1.9 0 0 0 -0.84 -0.022c-0.748 0.23 -1.052 0.964 -1.008 1.744q0.008 0.182 0.08 0.348a1 1 0 0 0 0.2 0.296c0.502 0.526 1.436 0.674 1.996 0.212a1.6 1.6 0 0 0 0.29 -0.32q0.04 -0.06 0.076 -0.122 0.036 -0.064 0.064 -0.13a2 2 0 0 0 0.094 -0.274q0.018 -0.07 0.028 -0.142t0.014 -0.144a2 2 0 0 0 -0.008 -0.288l-0.024 -0.142q-0.014 -0.07 -0.036 -0.14l-0.05 -0.136a2 2 0 0 0 -0.134 -0.256m0 0" fill-opacity="1" fill-rule="nonzero"/><path fill="#f4ab9a" d="M45.606 22.356q-0.248 0.23 -0.58 0.308a2.8 2.8 0 0 1 -0.93 0.128 1 1 0 0 1 -0.314 -0.044 1 1 0 0 1 -0.28 -0.148 0.3 0.3 0 0 1 -0.07 -0.158 0.9 0.9 0 0 1 0.058 -0.372 1 1 0 0 1 0.206 -0.316 1 1 0 0 1 0.202 -0.15 2 2 0 0 1 0.474 -0.178 2 2 0 0 1 0.504 -0.052c0.344 -0.012 0.764 0.058 0.892 0.378a0.6 0.6 0 0 1 0.026 0.164 0.6 0.6 0 0 1 -0.02 0.164 0.6 0.6 0 0 1 -0.064 0.152 0.6 0.6 0 0 1 -0.104 0.128m-14.786 -0.756a2 2 0 0 0 -0.972 -0.23c-0.346 -0.012 -0.766 0.058 -0.892 0.378a0.6 0.6 0 0 0 -0.028 0.162 0.6 0.6 0 0 0 0.018 0.164 0.6 0.6 0 0 0 0.062 0.152 0.6 0.6 0 0 0 0.102 0.13q0.25 0.23 0.58 0.308a2.8 2.8 0 0 0 0.93 0.128 1 1 0 0 0 0.314 -0.044 1 1 0 0 0 0.28 -0.148 0.26 0.26 0 0 0 0.068 -0.158 1 1 0 0 0 -0.02 -0.252 1 1 0 0 0 -0.09 -0.236l-0.068 -0.106a1 1 0 0 0 -0.286 -0.246m0 0" fill-opacity="1" fill-rule="nonzero"/></svg>