<svg xmlns="http://www.w3.org/2000/svg" xmlns:xlink="http://www.w3.org/1999/xlink" width="100" zoomAndPan="magnify" viewBox="0 0 75 42.188" height="56.25" preserveAspectRatio="xMidYMid meet" version="1.0"><path fill="#3faa96" d="M39.086 8.318c-1.022 -0.572 -2.692 -0.552 -3.71 0.046l-15.324 9.004c-1.016 0.6 -1.84 2.052 -1.84 3.224v19.394c0 1.174 0.964 2.144 2.136 2.144h9.062c1.192 0 2.154 -0.97 2.154 -2.144v-8.892c0 -1.174 0.964 -2.134 2.132 -2.134h7.98c1.18 0 2.14 0.96 2.14 2.134v8.894a2.16 2.16 0 0 0 2.154 2.144h9.06a2.16 2.16 0 0 0 2.14 -2.144v-19.394c0 -1.174 -0.844 -2.618 -1.876 -3.188z" fill-opacity="1" fill-rule="nonzero"/><path fill="#3faa96" d="M60.61 15c-0.4 0.704 -1.57 0.812 -2.604 0.22l-19.06 -11.066c-1.026 -0.59 -2.684 -0.574 -3.702 0.03L17.008 15.176c-1.012 0.608 -2.19 0.528 -2.606 -0.176 -0.43 -0.704 0.048 -1.788 1.058 -2.388L35.218 0.7c1.02 -0.604 2.672 -0.63 3.696 -0.034L59.516 12.62c1.016 0.59 1.524 1.662 1.094 2.38" fill-opacity="1" fill-rule="nonzero"/></svg>