<svg xmlns="http://www.w3.org/2000/svg" xmlns:xlink="http://www.w3.org/1999/xlink" width="400" zoomAndPan="magnify" viewBox="0 0 300 168.752" height="225" preserveAspectRatio="xMidYMid meet" version="1.0"><defs><clipPath id="76fcab84a1"><path d="M105.624 0h93.728v168.752h-93.728Zm0 0" clip-rule="nonzero"/></clipPath></defs><g clip-path="url(#76fcab84a1)"><path fill="#000000" d="M199.296 83.448V65.744q0 -0.264 -0.056 -0.528a2.4 2.4 0 0 0 -0.152 -0.512 2.4 2.4 0 0 0 -0.256 -0.472 2.4 2.4 0 0 0 -0.752 -0.752 2.8 2.8 0 0 0 -1.512 -0.456h-10.904V33.056a32 32 0 0 0 -0.16 -3.256q-0.08 -0.808 -0.2 -1.616a32 32 0 0 0 -0.28 -1.608 32 32 0 0 0 -0.36 -1.592 32 32 0 0 0 -2.192 -6.128 32 32 0 0 0 -0.736 -1.456q-0.384 -0.72 -0.8 -1.416a32 32 0 0 0 -0.872 -1.376 32 32 0 0 0 -1.944 -2.616 32 32 0 0 0 -1.064 -1.232q-0.544 -0.6 -1.12 -1.176a32 32 0 0 0 -1.176 -1.12 32 32 0 0 0 -1.232 -1.064 32 32 0 0 0 -1.288 -1 32 32 0 0 0 -2.712 -1.808 32 32 0 0 0 -2.872 -1.536 32 32 0 0 0 -1.488 -0.664 32 32 0 0 0 -3.072 -1.096 32 32 0 0 0 -1.568 -0.432 32 32 0 0 0 -1.592 -0.36 32 32 0 0 0 -1.608 -0.28 32 32 0 0 0 -1.616 -0.2 32 32 0 0 0 -1.624 -0.12 32 32 0 0 0 -1.632 -0.04q-0.816 0 -1.632 0.04t-1.624 0.12 -1.616 0.2 -1.608 0.28a32 32 0 0 0 -1.592 0.36 32 32 0 0 0 -3.12 0.944q-0.768 0.272 -1.52 0.584t-1.488 0.664a32 32 0 0 0 -1.456 0.736 32 32 0 0 0 -2.792 1.672q-0.68 0.456 -1.336 0.936a32 32 0 0 0 -1.288 1 32 32 0 0 0 -1.232 1.064 32 32 0 0 0 -1.184 1.12 32 32 0 0 0 -1.12 1.176 32 32 0 0 0 -3.008 3.848 32 32 0 0 0 -0.872 1.376 32 32 0 0 0 -0.8 1.416 32 32 0 0 0 -0.736 1.456 32 32 0 0 0 -1.248 3.008 32 32 0 0 0 -0.944 3.12 32 32 0 0 0 -0.36 1.592 32 32 0 0 0 -0.28 1.608 32 32 0 0 0 -0.2 1.616q-0.08 0.808 -0.12 1.624a32 32 0 0 0 -0.04 1.632v29.96h-10.904q-0.272 0 -0.528 0.056 -0.264 0.048 -0.512 0.152t-0.472 0.248a2.4 2.4 0 0 0 -0.416 0.336 2.4 2.4 0 0 0 -0.336 0.416 2.4 2.4 0 0 0 -0.408 0.984 2.4 2.4 0 0 0 -0.056 0.528V83.44q0 1.104 0.056 2.208t0.16 2.208 0.264 2.192 0.368 2.184a48 48 0 0 0 0.472 2.16q0.256 1.072 0.568 2.136a48 48 0 0 0 0.672 2.104 48 48 0 0 0 0.768 2.072q0.408 1.024 0.864 2.032a48 48 0 0 0 0.96 1.992q0.504 0.984 1.056 1.944a48 48 0 0 0 1.144 1.896 48 48 0 0 0 1.232 1.84q0.64 0.904 1.32 1.776a48 48 0 0 0 2.88 3.36 48 48 0 0 0 1.56 1.576 48 48 0 0 0 1.632 1.496 48 48 0 0 0 1.696 1.416q0.864 0.688 1.76 1.336a48 48 0 0 0 1.824 1.256 48 48 0 0 0 3.816 2.24 48 48 0 0 0 1.984 0.984 48 48 0 0 0 2.024 0.888 48 48 0 0 0 2.064 0.792q1.04 0.376 2.104 0.696a48 48 0 0 0 2.128 0.592q1.072 0.272 2.16 0.496a48 48 0 0 0 4.368 0.68q1.104 0.12 2.208 0.184v33.128h-39.896q-0.272 0 -0.528 0.056a2.4 2.4 0 0 0 -0.984 0.408 2.4 2.4 0 0 0 -0.752 0.752q-0.152 0.224 -0.256 0.472t-0.152 0.512a2.4 2.4 0 0 0 0 1.064q0.056 0.264 0.152 0.512t0.256 0.472 0.336 0.416a2.4 2.4 0 0 0 0.88 0.592q0.248 0.104 0.512 0.152 0.264 0.056 0.528 0.056h85.288a2.72 2.72 0 0 0 1.928 -0.8 2.4 2.4 0 0 0 0.336 -0.416q0.152 -0.224 0.256 -0.472a2.4 2.4 0 0 0 0.152 -0.512q0.048 -0.264 0.056 -0.528 0 -0.272 -0.056 -0.528a2.4 2.4 0 0 0 -0.152 -0.512 2.4 2.4 0 0 0 -0.256 -0.472 2.4 2.4 0 0 0 -0.336 -0.416 2.4 2.4 0 0 0 -0.88 -0.592 2.4 2.4 0 0 0 -1.04 -0.208h-39.92v-33.128q1.104 -0.064 2.208 -0.184a48 48 0 0 0 4.368 -0.68 48 48 0 0 0 2.16 -0.496q1.072 -0.272 2.128 -0.592a48 48 0 0 0 2.104 -0.696 48 48 0 0 0 4.088 -1.68q1.008 -0.472 1.984 -0.984a48 48 0 0 0 5.64 -3.496q0.896 -0.648 1.76 -1.336a48 48 0 0 0 1.696 -1.416q0.832 -0.728 1.632 -1.496a48 48 0 0 0 1.56 -1.576q0.76 -0.808 1.48 -1.64a48 48 0 0 0 5.096 -7.216 48 48 0 0 0 1.056 -1.944 48 48 0 0 0 0.96 -1.992 48 48 0 0 0 0.864 -2.032q0.408 -1.032 0.768 -2.072a48 48 0 0 0 0.672 -2.104q0.312 -1.064 0.568 -2.136a48 48 0 0 0 0.832 -4.344 48 48 0 0 0 0.264 -2.192q0.104 -1.104 0.16 -2.208t0.056 -2.208M124.712 52.12h12.384q0.272 0 0.528 -0.056 0.264 -0.056 0.512 -0.152t0.472 -0.256a2.4 2.4 0 0 0 0.416 -0.336 2.4 2.4 0 0 0 0.592 -0.88q0.104 -0.248 0.152 -0.512a2.4 2.4 0 0 0 0 -1.064q-0.056 -0.264 -0.152 -0.512a2.4 2.4 0 0 0 -0.592 -0.88 2.4 2.4 0 0 0 -0.416 -0.336 2.4 2.4 0 0 0 -0.472 -0.248 2.4 2.4 0 0 0 -1.04 -0.208h-12.384V35.784h12.384a2.4 2.4 0 0 0 1.04 -0.208q0.248 -0.104 0.472 -0.248a2.4 2.4 0 0 0 0.416 -0.336 2.4 2.4 0 0 0 0.592 -0.88 2.4 2.4 0 0 0 0.208 -1.04q0 -0.272 -0.056 -0.528a2.4 2.4 0 0 0 -0.152 -0.512 2.4 2.4 0 0 0 -0.592 -0.88 2.4 2.4 0 0 0 -0.888 -0.592 2.4 2.4 0 0 0 -1.04 -0.208h-12.248q0.064 -0.64 0.152 -1.264a24 24 0 0 1 0.48 -2.504 32 32 0 0 1 0.712 -2.448 32 32 0 0 1 0.936 -2.376q0.264 -0.584 0.544 -1.152a32 32 0 0 1 1.248 -2.224l0.704 -1.064a32 32 0 0 1 1.544 -2.032l0.84 -0.96 0.888 -0.92q0.456 -0.448 0.928 -0.88a24 24 0 0 1 1.968 -1.624l1.04 -0.744a24 24 0 0 1 2.176 -1.336q0.56 -0.312 1.128 -0.592t1.16 -0.544l1.184 -0.488 1.2 -0.432q0.608 -0.2 1.224 -0.376l1.24 -0.32q0.624 -0.144 1.248 -0.264a28 28 0 0 1 5.08 -0.472 28 28 0 0 1 3.816 0.264q0.632 0.088 1.264 0.208 0.624 0.12 1.248 0.264t1.24 0.32 1.216 0.376q0.608 0.2 1.2 0.432t1.176 0.488a32 32 0 0 1 2.288 1.136l1.104 0.64a32 32 0 0 1 2.112 1.44 24 24 0 0 1 1.968 1.624l0.928 0.88a28 28 0 0 1 2.52 2.88A32 32 0 0 1 176 18.384a32 32 0 0 1 1.248 2.224 28 28 0 0 1 1.48 3.528l0.384 1.216 0.328 1.232q0.152 0.624 0.272 1.248t0.216 1.256 0.152 1.264h-12.248a2.4 2.4 0 0 0 -1.04 0.208q-0.248 0.104 -0.472 0.256a2.4 2.4 0 0 0 -0.416 0.336 2.4 2.4 0 0 0 -0.336 0.416 2.4 2.4 0 0 0 -0.248 0.472 2.4 2.4 0 0 0 -0.208 1.04 2.4 2.4 0 0 0 0.208 1.04q0.104 0.248 0.248 0.472t0.336 0.416a2.4 2.4 0 0 0 0.88 0.592q0.248 0.104 0.512 0.152 0.264 0.056 0.528 0.056h12.384v10.896h-12.384a2.4 2.4 0 0 0 -1.04 0.208 2.4 2.4 0 0 0 -0.888 0.592 2.4 2.4 0 0 0 -0.592 0.88 2.4 2.4 0 0 0 -0.208 1.04q0 0.272 0.056 0.528 0.056 0.264 0.152 0.512t0.256 0.472a8 8 0 0 0 0.336 0.416 2.4 2.4 0 0 0 0.888 0.592 2.4 2.4 0 0 0 1.04 0.208h12.384v10.896h-12.384a2.4 2.4 0 0 0 -0.528 0.056q-0.264 0.048 -0.512 0.152a2.4 2.4 0 0 0 -0.888 0.592 2.4 2.4 0 0 0 -0.336 0.416 8 8 0 0 0 -0.256 0.472 2.4 2.4 0 0 0 -0.208 1.04q0 0.272 0.056 0.528 0.056 0.264 0.152 0.512t0.256 0.472q0.152 0.224 0.336 0.416a2.72 2.72 0 0 0 1.928 0.8h12.384V79.4h-12.384a2.4 2.4 0 0 0 -1.04 0.208 2.4 2.4 0 0 0 -0.472 0.256 2.4 2.4 0 0 0 -0.752 0.752 8 8 0 0 0 -0.256 0.472 2.4 2.4 0 0 0 -0.208 1.04 2.8 2.8 0 0 0 0.456 1.512q0.152 0.224 0.336 0.416t0.416 0.336 0.472 0.248 0.512 0.152a8 8 0 0 0 0.528 0.056h12.32l-0.096 1.312a32 32 0 0 1 -0.376 2.608l-0.28 1.288q-0.16 0.64 -0.344 1.272a24 24 0 0 1 -0.4 1.256l-0.464 1.232a32 32 0 0 1 -1.096 2.4l-0.632 1.16 -0.688 1.128a24 24 0 0 1 -0.736 1.096 32 32 0 0 1 -1.632 2.072l-0.888 0.976a24 24 0 0 1 -1.912 1.816l-1.016 0.84 -1.056 0.792a32 32 0 0 1 -2.216 1.424l-1.16 0.632a24 24 0 0 1 -2.4 1.096q-0.616 0.248 -1.24 0.464l-1.256 0.4a32 32 0 0 1 -2.56 0.624q-0.648 0.128 -1.304 0.216 -0.656 0.096 -1.312 0.16t-1.312 0.096 -1.32 0.032 -1.32 -0.032l-1.312 -0.096a24 24 0 0 1 -2.608 -0.376 32 32 0 0 1 -2.56 -0.624 32 32 0 0 1 -2.496 -0.864 24 24 0 0 1 -2.4 -1.096l-1.16 -0.632a32 32 0 0 1 -2.216 -1.424l-1.056 -0.792a24 24 0 0 1 -1.016 -0.84 24 24 0 0 1 -1.912 -1.816l-0.888 -0.976a28 28 0 0 1 -3.688 -5.448l-0.576 -1.184 -0.52 -1.208 -0.464 -1.232 -0.4 -1.256 -0.344 -1.272q-0.152 -0.64 -0.28 -1.288a24 24 0 0 1 -0.376 -2.608 24 24 0 0 1 -0.096 -1.312h12.312a2.4 2.4 0 0 0 0.528 -0.056q0.264 -0.056 0.512 -0.152t0.472 -0.248a2.4 2.4 0 0 0 0.416 -0.336 2.4 2.4 0 0 0 0.592 -0.88 2.4 2.4 0 0 0 0.208 -1.04q0 -0.272 -0.056 -0.528a2.4 2.4 0 0 0 -0.152 -0.512 2.4 2.4 0 0 0 -0.592 -0.88 2.4 2.4 0 0 0 -0.416 -0.336 2.4 2.4 0 0 0 -0.472 -0.256 2.4 2.4 0 0 0 -1.04 -0.208H124.68V68.536h12.384q0.272 0 0.528 -0.056a2.72 2.72 0 0 0 2.144 -2.144 2.4 2.4 0 0 0 0 -1.064 2.4 2.4 0 0 0 -0.152 -0.512 2.4 2.4 0 0 0 -0.256 -0.472 2.4 2.4 0 0 0 -0.336 -0.416 2.4 2.4 0 0 0 -0.888 -0.592 2.4 2.4 0 0 0 -0.512 -0.152 2.4 2.4 0 0 0 -0.528 -0.056h-12.352Zm-13.624 31.328V68.464h8.176v14.984q0 0.816 0.04 1.632t0.12 1.624 0.2 1.616 0.28 1.608a32 32 0 0 0 0.36 1.592q0.2 0.792 0.432 1.568a32 32 0 0 0 0.512 1.544q0.272 0.768 0.584 1.52t0.664 1.488a32 32 0 0 0 1.536 2.872 32 32 0 0 0 0.872 1.376 32 32 0 0 0 3.008 3.848q0.544 0.6 1.12 1.176a32 32 0 0 0 1.176 1.12q0.608 0.544 1.232 1.064a32 32 0 0 0 1.288 1q0.656 0.48 1.336 0.936t1.376 0.872a32 32 0 0 0 1.416 0.8 32 32 0 0 0 2.944 1.392q0.752 0.312 1.52 0.584a32 32 0 0 0 4.704 1.304q0.8 0.16 1.608 0.28t1.616 0.2 1.624 0.12 1.632 0.04 1.632 -0.04a32 32 0 0 0 1.624 -0.12q0.808 -0.08 1.616 -0.2a32 32 0 0 0 3.192 -0.632 32 32 0 0 0 4.64 -1.528q0.76 -0.312 1.488 -0.664a32 32 0 0 0 1.456 -0.728 32 32 0 0 0 2.792 -1.672q0.68 -0.456 1.336 -0.936a32 32 0 0 0 2.52 -2.064 32 32 0 0 0 1.176 -1.12 32 32 0 0 0 3.192 -3.696 32 32 0 0 0 1.808 -2.704 32 32 0 0 0 2.2 -4.36q0.312 -0.752 0.584 -1.52t0.512 -1.544a32 32 0 0 0 0.432 -1.568 32 32 0 0 0 0.36 -1.592q0.16 -0.8 0.28 -1.608t0.2 -1.616 0.12 -1.624 0.04 -1.632V68.472h8.176v14.984q0 1.016 -0.048 2.032t-0.152 2.024a40 40 0 0 1 -0.592 4.016 40 40 0 0 1 -0.448 1.984 41.6 41.6 0 0 1 -3.648 9.448 40 40 0 0 1 -1 1.768 40 40 0 0 1 -1.088 1.712 40 40 0 0 1 -2.416 3.264 40 40 0 0 1 -2.728 3.008 40 40 0 0 1 -1.472 1.4q-0.752 0.68 -1.536 1.328a40 40 0 0 1 -3.264 2.416 40 40 0 0 1 -3.48 2.088 40 40 0 0 1 -1.816 0.912 40 40 0 0 1 -1.856 0.824 40 40 0 0 1 -1.896 0.728 40 40 0 0 1 -1.928 0.64 40 40 0 0 1 -3.936 0.984 40 40 0 0 1 -4.016 0.592 44 44 0 0 1 -6.088 0.152q-1.016 -0.048 -2.024 -0.152a40 40 0 0 1 -4.016 -0.592 40 40 0 0 1 -3.936 -0.984 40 40 0 0 1 -1.928 -0.64 40 40 0 0 1 -1.896 -0.728 40 40 0 0 1 -1.856 -0.824 40 40 0 0 1 -3.584 -1.912 40 40 0 0 1 -1.712 -1.088 40 40 0 0 1 -4.8 -3.744 40 40 0 0 1 -1.472 -1.4q-0.72 -0.72 -1.4 -1.472a40 40 0 0 1 -2.576 -3.136 40 40 0 0 1 -2.256 -3.376 40 40 0 0 1 -1 -1.768 40 40 0 0 1 -0.912 -1.816 41.6 41.6 0 0 1 -3.176 -9.616 40 40 0 0 1 -0.344 -2 44 44 0 0 1 -0.448 -6.072m0 0" fill-opacity="1" fill-rule="nonzero"/></g></svg>