<svg xmlns="http://www.w3.org/2000/svg" xmlns:xlink="http://www.w3.org/1999/xlink" width="1920" zoomAndPan="magnify" viewBox="0 0 1440 809.999993" height="1080" preserveAspectRatio="xMidYMid meet" version="1.0"><defs><clipPath id="5177c734de"><path d="M 507 0 L 956.890625 0 L 956.890625 810 L 507 810 Z M 507 0 " clip-rule="nonzero"/></clipPath></defs><rect x="-144" width="1728" fill="#ffffff" y="-80.999999" height="971.999992" fill-opacity="1"/><rect x="-144" width="1728" fill="#ffffff" y="-80.999999" height="971.999992" fill-opacity="1"/><g clip-path="url(#5177c734de)"><path fill="#000000" d="M 956.628906 400.550781 L 956.628906 315.5625 C 956.628906 314.707031 956.542969 313.855469 956.375 313.011719 C 956.210938 312.171875 955.960938 311.355469 955.632812 310.5625 C 955.304688 309.765625 954.902344 309.015625 954.421875 308.300781 C 953.945312 307.585938 953.402344 306.925781 952.796875 306.320312 C 952.1875 305.710938 951.527344 305.167969 950.816406 304.691406 C 950.101562 304.214844 949.347656 303.8125 948.554688 303.484375 C 947.757812 303.15625 946.941406 302.90625 946.097656 302.742188 C 945.257812 302.574219 944.40625 302.488281 943.546875 302.488281 L 891.226562 302.488281 L 891.226562 158.664062 C 891.226562 156.054688 891.160156 153.449219 891.035156 150.847656 C 890.90625 148.242188 890.714844 145.640625 890.457031 143.046875 C 890.203125 140.453125 889.882812 137.867188 889.5 135.285156 C 889.117188 132.707031 888.671875 130.140625 888.164062 127.582031 C 887.652344 125.023438 887.082031 122.480469 886.449219 119.953125 C 885.816406 117.421875 885.121094 114.910156 884.363281 112.417969 C 883.605469 109.921875 882.789062 107.445312 881.910156 104.992188 C 881.03125 102.535156 880.089844 100.105469 879.09375 97.695312 C 878.09375 95.285156 877.039062 92.902344 875.921875 90.546875 C 874.808594 88.191406 873.636719 85.859375 872.40625 83.5625 C 871.175781 81.261719 869.890625 78.996094 868.550781 76.757812 C 867.207031 74.523438 865.8125 72.320312 864.363281 70.152344 C 862.914062 67.984375 861.414062 65.851562 859.859375 63.757812 C 858.304688 61.664062 856.703125 59.609375 855.046875 57.59375 C 853.390625 55.578125 851.6875 53.605469 849.9375 51.671875 C 848.1875 49.742188 846.386719 47.851562 844.542969 46.007812 C 842.699219 44.164062 840.808594 42.367188 838.878906 40.617188 C 836.945312 38.867188 834.96875 37.164062 832.953125 35.507812 C 830.9375 33.855469 828.882812 32.25 826.785156 30.699219 C 824.691406 29.144531 822.558594 27.644531 820.390625 26.195312 C 818.222656 24.746094 816.019531 23.351562 813.78125 22.011719 C 811.542969 20.671875 809.273438 19.386719 806.976562 18.160156 C 804.675781 16.929688 802.34375 15.757812 799.988281 14.640625 C 797.628906 13.527344 795.246094 12.472656 792.835938 11.472656 C 790.425781 10.476562 787.992188 9.539062 785.535156 8.660156 C 783.082031 7.78125 780.605469 6.964844 778.109375 6.207031 C 775.613281 5.449219 773.097656 4.753906 770.570312 4.121094 C 768.039062 3.488281 765.496094 2.917969 762.9375 2.40625 C 760.378906 1.898438 757.808594 1.453125 755.230469 1.070312 C 752.648438 0.6875 750.058594 0.367188 747.464844 0.113281 C 744.867188 -0.140625 742.269531 -0.332031 739.664062 -0.460938 C 737.058594 -0.589844 734.449219 -0.652344 731.84375 -0.652344 C 729.234375 -0.652344 726.625 -0.589844 724.023438 -0.460938 C 721.417969 -0.332031 718.816406 -0.140625 716.21875 0.113281 C 713.625 0.367188 711.035156 0.6875 708.457031 1.070312 C 705.875 1.453125 703.304688 1.898438 700.746094 2.40625 C 698.191406 2.917969 695.644531 3.488281 693.113281 4.121094 C 690.585938 4.753906 688.070312 5.449219 685.574219 6.207031 C 683.078125 6.964844 680.601562 7.78125 678.148438 8.660156 C 675.691406 9.539062 673.257812 10.476562 670.847656 11.472656 C 668.4375 12.472656 666.054688 13.527344 663.695312 14.640625 C 661.339844 15.757812 659.007812 16.929688 656.710938 18.160156 C 654.410156 19.386719 652.140625 20.671875 649.902344 22.011719 C 647.664062 23.351562 645.460938 24.746094 643.292969 26.195312 C 641.125 27.644531 638.992188 29.144531 636.898438 30.699219 C 634.800781 32.25 632.746094 33.855469 630.730469 35.507812 C 628.714844 37.164062 626.738281 38.867188 624.808594 40.617188 C 622.875 42.367188 620.984375 44.164062 619.140625 46.007812 C 617.296875 47.851562 615.5 49.742188 613.746094 51.671875 C 611.996094 53.605469 610.292969 55.578125 608.636719 57.59375 C 606.980469 59.609375 605.378906 61.664062 603.824219 63.757812 C 602.269531 65.851562 600.769531 67.984375 599.320312 70.152344 C 597.871094 72.320312 596.476562 74.523438 595.132812 76.757812 C 593.792969 78.996094 592.507812 81.261719 591.277344 83.5625 C 590.046875 85.859375 588.875 88.191406 587.761719 90.546875 C 586.644531 92.902344 585.589844 95.285156 584.589844 97.695312 C 583.59375 100.105469 582.652344 102.535156 581.777344 104.992188 C 580.898438 107.445312 580.078125 109.921875 579.320312 112.417969 C 578.566406 114.910156 577.867188 117.421875 577.234375 119.953125 C 576.601562 122.480469 576.03125 125.023438 575.519531 127.582031 C 575.011719 130.140625 574.566406 132.707031 574.183594 135.285156 C 573.800781 137.867188 573.480469 140.453125 573.226562 143.046875 C 572.96875 145.640625 572.777344 148.242188 572.652344 150.847656 C 572.523438 153.449219 572.457031 156.054688 572.457031 158.664062 L 572.457031 302.488281 L 520.136719 302.488281 C 519.277344 302.488281 518.425781 302.574219 517.585938 302.742188 C 516.742188 302.90625 515.925781 303.15625 515.132812 303.484375 C 514.335938 303.8125 513.582031 304.214844 512.871094 304.691406 C 512.15625 305.167969 511.496094 305.710938 510.886719 306.320312 C 510.28125 306.925781 509.738281 307.585938 509.261719 308.300781 C 508.785156 309.015625 508.378906 309.765625 508.050781 310.5625 C 507.722656 311.355469 507.476562 312.171875 507.308594 313.011719 C 507.140625 313.855469 507.054688 314.707031 507.054688 315.5625 L 507.054688 400.550781 C 507.058594 404.089844 507.148438 407.625 507.320312 411.160156 C 507.492188 414.695312 507.746094 418.226562 508.085938 421.75 C 508.421875 425.273438 508.84375 428.785156 509.347656 432.289062 C 509.851562 435.792969 510.4375 439.28125 511.105469 442.757812 C 511.773438 446.234375 512.527344 449.691406 513.359375 453.132812 C 514.191406 456.574219 515.101562 459.992188 516.097656 463.390625 C 517.089844 466.789062 518.164062 470.160156 519.316406 473.507812 C 520.46875 476.851562 521.699219 480.171875 523.007812 483.460938 C 524.320312 486.75 525.707031 490.003906 527.167969 493.226562 C 528.632812 496.449219 530.171875 499.636719 531.785156 502.789062 C 533.398438 505.9375 535.085938 509.050781 536.84375 512.121094 C 538.605469 515.191406 540.4375 518.21875 542.34375 521.203125 C 544.246094 524.1875 546.21875 527.128906 548.261719 530.019531 C 550.304688 532.910156 552.414062 535.75 554.589844 538.542969 C 556.765625 541.335938 559.007812 544.074219 561.3125 546.761719 C 563.617188 549.449219 565.988281 552.078125 568.417969 554.652344 C 570.847656 557.226562 573.335938 559.742188 575.886719 562.199219 C 578.433594 564.65625 581.039062 567.050781 583.703125 569.386719 C 586.363281 571.71875 589.078125 573.988281 591.847656 576.195312 C 594.617188 578.402344 597.4375 580.542969 600.308594 582.613281 C 603.179688 584.6875 606.097656 586.691406 609.0625 588.625 C 612.027344 590.5625 615.035156 592.425781 618.085938 594.21875 C 621.140625 596.011719 624.234375 597.734375 627.367188 599.378906 C 630.503906 601.027344 633.675781 602.601562 636.882812 604.097656 C 640.089844 605.59375 643.332031 607.015625 646.609375 608.363281 C 649.882812 609.707031 653.191406 610.972656 656.523438 612.160156 C 659.859375 613.351562 663.222656 614.460938 666.609375 615.488281 C 669.996094 616.519531 673.40625 617.46875 676.839844 618.339844 C 680.273438 619.207031 683.722656 619.996094 687.195312 620.703125 C 690.664062 621.410156 694.148438 622.03125 697.648438 622.574219 C 701.148438 623.117188 704.65625 623.574219 708.179688 623.953125 C 711.699219 624.328125 715.226562 624.621094 718.761719 624.832031 L 718.761719 783.851562 L 527.15625 783.851562 C 526.296875 783.851562 525.445312 783.933594 524.605469 784.101562 C 523.761719 784.269531 522.945312 784.515625 522.148438 784.84375 C 521.355469 785.171875 520.601562 785.578125 519.890625 786.054688 C 519.175781 786.53125 518.515625 787.074219 517.90625 787.679688 C 517.300781 788.285156 516.757812 788.945312 516.28125 789.660156 C 515.800781 790.375 515.398438 791.128906 515.070312 791.921875 C 514.742188 792.714844 514.496094 793.53125 514.328125 794.375 C 514.160156 795.214844 514.074219 796.066406 514.074219 796.925781 C 514.074219 797.785156 514.160156 798.632812 514.328125 799.476562 C 514.496094 800.316406 514.742188 801.136719 515.070312 801.929688 C 515.398438 802.722656 515.800781 803.476562 516.28125 804.1875 C 516.757812 804.902344 517.300781 805.5625 517.90625 806.171875 C 518.515625 806.777344 519.175781 807.320312 519.890625 807.796875 C 520.601562 808.273438 521.355469 808.675781 522.148438 809.003906 C 522.945312 809.332031 523.761719 809.582031 524.605469 809.75 C 525.445312 809.917969 526.296875 810 527.15625 810 L 936.527344 810 C 937.386719 810 938.238281 809.917969 939.082031 809.75 C 939.921875 809.582031 940.742188 809.332031 941.535156 809.003906 C 942.328125 808.675781 943.082031 808.273438 943.796875 807.796875 C 944.507812 807.320312 945.171875 806.777344 945.777344 806.171875 C 946.386719 805.5625 946.925781 804.902344 947.402344 804.1875 C 947.882812 803.476562 948.285156 802.722656 948.613281 801.929688 C 948.941406 801.136719 949.191406 800.316406 949.359375 799.476562 C 949.523438 798.632812 949.609375 797.785156 949.609375 796.925781 C 949.609375 796.066406 949.523438 795.214844 949.355469 794.375 C 949.191406 793.53125 948.941406 792.714844 948.613281 791.921875 C 948.285156 791.128906 947.882812 790.375 947.402344 789.660156 C 946.925781 788.945312 946.386719 788.285156 945.777344 787.679688 C 945.171875 787.074219 944.507812 786.53125 943.796875 786.054688 C 943.082031 785.578125 942.328125 785.171875 941.535156 784.84375 C 940.742188 784.515625 939.921875 784.269531 939.082031 784.101562 C 938.238281 783.933594 937.386719 783.851562 936.527344 783.851562 L 744.921875 783.851562 L 744.921875 624.832031 C 748.457031 624.621094 751.984375 624.328125 755.507812 623.953125 C 759.027344 623.574219 762.539062 623.117188 766.035156 622.574219 C 769.535156 622.03125 773.019531 621.410156 776.492188 620.703125 C 779.960938 619.996094 783.410156 619.207031 786.84375 618.339844 C 790.277344 617.46875 793.6875 616.519531 797.074219 615.488281 C 800.460938 614.460938 803.824219 613.351562 807.160156 612.160156 C 810.496094 610.972656 813.800781 609.707031 817.074219 608.363281 C 820.351562 607.015625 823.59375 605.59375 826.800781 604.097656 C 830.011719 602.601562 833.179688 601.027344 836.316406 599.378906 C 839.449219 597.734375 842.542969 596.011719 845.597656 594.21875 C 848.648438 592.425781 851.660156 590.5625 854.625 588.625 C 857.589844 586.691406 860.503906 584.6875 863.375 582.613281 C 866.246094 580.542969 869.066406 578.402344 871.835938 576.195312 C 874.605469 573.988281 877.320312 571.71875 879.980469 569.386719 C 882.644531 567.050781 885.25 564.65625 887.796875 562.199219 C 890.347656 559.742188 892.835938 557.226562 895.265625 554.652344 C 897.699219 552.078125 900.066406 549.449219 902.371094 546.761719 C 904.675781 544.074219 906.917969 541.335938 909.09375 538.542969 C 911.273438 535.75 913.382812 532.910156 915.421875 530.019531 C 917.464844 527.128906 919.4375 524.1875 921.34375 521.203125 C 923.246094 518.21875 925.078125 515.191406 926.839844 512.121094 C 928.597656 509.050781 930.285156 505.9375 931.898438 502.789062 C 933.515625 499.636719 935.050781 496.449219 936.515625 493.226562 C 937.980469 490.003906 939.367188 486.75 940.675781 483.460938 C 941.984375 480.171875 943.214844 476.851562 944.367188 473.507812 C 945.519531 470.160156 946.59375 466.789062 947.585938 463.390625 C 948.582031 459.992188 949.496094 456.574219 950.328125 453.132812 C 951.160156 449.691406 951.910156 446.234375 952.578125 442.757812 C 953.246094 439.28125 953.832031 435.792969 954.335938 432.289062 C 954.839844 428.785156 955.261719 425.273438 955.601562 421.75 C 955.9375 418.226562 956.191406 414.695312 956.363281 411.160156 C 956.535156 407.625 956.625 404.089844 956.628906 400.550781 Z M 598.621094 250.1875 L 658.066406 250.1875 C 658.925781 250.1875 659.777344 250.105469 660.617188 249.9375 C 661.460938 249.769531 662.277344 249.523438 663.070312 249.195312 C 663.867188 248.863281 664.621094 248.460938 665.332031 247.984375 C 666.046875 247.507812 666.707031 246.964844 667.316406 246.359375 C 667.921875 245.753906 668.464844 245.089844 668.941406 244.378906 C 669.417969 243.664062 669.824219 242.910156 670.152344 242.117188 C 670.480469 241.324219 670.726562 240.507812 670.894531 239.664062 C 671.0625 238.824219 671.148438 237.972656 671.148438 237.113281 C 671.148438 236.253906 671.0625 235.40625 670.894531 234.5625 C 670.726562 233.722656 670.480469 232.902344 670.152344 232.109375 C 669.824219 231.316406 669.417969 230.5625 668.941406 229.851562 C 668.464844 229.136719 667.921875 228.476562 667.316406 227.867188 C 666.707031 227.261719 666.046875 226.71875 665.332031 226.242188 C 664.621094 225.765625 663.867188 225.363281 663.070312 225.035156 C 662.277344 224.707031 661.460938 224.457031 660.617188 224.289062 C 659.777344 224.121094 658.925781 224.039062 658.066406 224.039062 L 598.621094 224.039062 L 598.621094 171.738281 L 658.066406 171.738281 C 658.925781 171.738281 659.777344 171.65625 660.617188 171.488281 C 661.460938 171.320312 662.277344 171.070312 663.070312 170.742188 C 663.867188 170.414062 664.621094 170.011719 665.332031 169.535156 C 666.046875 169.058594 666.707031 168.515625 667.316406 167.910156 C 667.921875 167.300781 668.464844 166.640625 668.941406 165.925781 C 669.417969 165.214844 669.824219 164.460938 670.152344 163.667969 C 670.480469 162.875 670.726562 162.054688 670.894531 161.214844 C 671.0625 160.371094 671.148438 159.523438 671.148438 158.664062 C 671.148438 157.804688 671.0625 156.953125 670.894531 156.113281 C 670.726562 155.269531 670.480469 154.453125 670.152344 153.660156 C 669.824219 152.867188 669.417969 152.113281 668.941406 151.398438 C 668.464844 150.683594 667.921875 150.023438 667.316406 149.417969 C 666.707031 148.8125 666.046875 148.269531 665.332031 147.792969 C 664.621094 147.316406 663.867188 146.914062 663.070312 146.582031 C 662.277344 146.253906 661.460938 146.007812 660.617188 145.839844 C 659.777344 145.671875 658.925781 145.589844 658.066406 145.589844 L 599.28125 145.589844 C 599.484375 143.554688 599.730469 141.527344 600.023438 139.507812 C 600.316406 137.484375 600.65625 135.472656 601.042969 133.464844 C 601.429688 131.460938 601.863281 129.464844 602.339844 127.476562 C 602.820312 125.492188 603.34375 123.519531 603.914062 121.554688 C 604.480469 119.59375 605.097656 117.644531 605.753906 115.710938 C 606.414062 113.777344 607.117188 111.859375 607.863281 109.960938 C 608.609375 108.058594 609.402344 106.175781 610.234375 104.308594 C 611.070312 102.445312 611.945312 100.601562 612.863281 98.777344 C 613.785156 96.953125 614.742188 95.148438 615.746094 93.367188 C 616.746094 91.589844 617.789062 89.832031 618.871094 88.097656 C 619.957031 86.367188 621.078125 84.660156 622.238281 82.980469 C 623.398438 81.296875 624.597656 79.644531 625.835938 78.019531 C 627.074219 76.394531 628.347656 74.796875 629.660156 73.230469 C 630.96875 71.664062 632.316406 70.125 633.699219 68.621094 C 635.082031 67.117188 636.496094 65.644531 637.945312 64.203125 C 639.394531 62.765625 640.875 61.359375 642.390625 59.988281 C 643.90625 58.613281 645.449219 57.277344 647.027344 55.976562 C 648.601562 54.675781 650.207031 53.414062 651.839844 52.1875 C 653.472656 50.960938 655.136719 49.769531 656.824219 48.621094 C 658.511719 47.46875 660.226562 46.359375 661.96875 45.285156 C 663.707031 44.214844 665.472656 43.183594 667.257812 42.195312 C 669.046875 41.203125 670.855469 40.253906 672.6875 39.347656 C 674.515625 38.441406 676.367188 37.574219 678.238281 36.753906 C 680.109375 35.929688 681.996094 35.152344 683.90625 34.417969 C 685.8125 33.683594 687.734375 32.992188 689.671875 32.34375 C 691.609375 31.699219 693.5625 31.097656 695.53125 30.539062 C 697.496094 29.984375 699.472656 29.472656 701.464844 29.003906 C 703.453125 28.539062 705.453125 28.121094 707.460938 27.746094 C 709.472656 27.371094 711.488281 27.042969 713.511719 26.761719 C 715.535156 26.480469 717.566406 26.246094 719.601562 26.058594 C 721.636719 25.871094 723.671875 25.730469 725.714844 25.636719 C 727.757812 25.542969 729.796875 25.496094 731.84375 25.496094 C 733.886719 25.496094 735.929688 25.542969 737.96875 25.636719 C 740.011719 25.730469 742.050781 25.871094 744.085938 26.058594 C 746.121094 26.246094 748.148438 26.480469 750.171875 26.761719 C 752.199219 27.042969 754.214844 27.371094 756.222656 27.746094 C 758.230469 28.121094 760.230469 28.539062 762.222656 29.003906 C 764.210938 29.472656 766.1875 29.984375 768.15625 30.539062 C 770.121094 31.097656 772.074219 31.699219 774.011719 32.34375 C 775.949219 32.992188 777.875 33.683594 779.78125 34.417969 C 781.6875 35.152344 783.574219 35.929688 785.445312 36.753906 C 787.316406 37.574219 789.167969 38.441406 791 39.347656 C 792.832031 40.253906 794.640625 41.203125 796.425781 42.195312 C 798.214844 43.183594 799.976562 44.214844 801.71875 45.285156 C 803.457031 46.359375 805.171875 47.46875 806.859375 48.621094 C 808.550781 49.769531 810.210938 50.960938 811.84375 52.1875 C 813.476562 53.414062 815.082031 54.675781 816.660156 55.976562 C 818.234375 57.277344 819.78125 58.613281 821.292969 59.988281 C 822.808594 61.359375 824.289062 62.765625 825.738281 64.203125 C 827.1875 65.644531 828.605469 67.117188 829.984375 68.621094 C 831.367188 70.125 832.714844 71.664062 834.023438 73.230469 C 835.335938 74.796875 836.609375 76.394531 837.847656 78.019531 C 839.085938 79.644531 840.285156 81.296875 841.445312 82.980469 C 842.605469 84.660156 843.730469 86.367188 844.8125 88.097656 C 845.894531 89.832031 846.9375 91.589844 847.9375 93.367188 C 848.941406 95.148438 849.902344 96.953125 850.820312 98.777344 C 851.738281 100.601562 852.617188 102.445312 853.449219 104.308594 C 854.285156 106.175781 855.074219 108.058594 855.820312 109.960938 C 856.566406 111.859375 857.269531 113.777344 857.929688 115.710938 C 858.589844 117.644531 859.203125 119.59375 859.773438 121.554688 C 860.339844 123.519531 860.867188 125.492188 861.34375 127.476562 C 861.820312 129.464844 862.253906 131.460938 862.640625 133.464844 C 863.027344 135.472656 863.367188 137.484375 863.660156 139.507812 C 863.953125 141.527344 864.203125 143.554688 864.402344 145.589844 L 805.617188 145.589844 C 804.757812 145.589844 803.910156 145.671875 803.066406 145.839844 C 802.222656 146.007812 801.40625 146.253906 800.613281 146.582031 C 799.820312 146.914062 799.066406 147.316406 798.351562 147.792969 C 797.636719 148.269531 796.976562 148.8125 796.371094 149.417969 C 795.761719 150.023438 795.21875 150.683594 794.742188 151.398438 C 794.265625 152.113281 793.863281 152.867188 793.535156 153.660156 C 793.203125 154.453125 792.957031 155.269531 792.789062 156.113281 C 792.621094 156.953125 792.539062 157.804688 792.539062 158.664062 C 792.539062 159.523438 792.621094 160.371094 792.789062 161.214844 C 792.957031 162.054688 793.203125 162.875 793.535156 163.667969 C 793.863281 164.460938 794.265625 165.214844 794.742188 165.925781 C 795.21875 166.640625 795.761719 167.300781 796.371094 167.910156 C 796.976562 168.515625 797.636719 169.058594 798.351562 169.535156 C 799.066406 170.011719 799.820312 170.414062 800.613281 170.742188 C 801.40625 171.070312 802.222656 171.320312 803.066406 171.488281 C 803.910156 171.65625 804.757812 171.738281 805.617188 171.738281 L 865.066406 171.738281 L 865.066406 224.039062 L 805.617188 224.039062 C 804.757812 224.039062 803.910156 224.121094 803.066406 224.289062 C 802.222656 224.457031 801.40625 224.707031 800.613281 225.035156 C 799.820312 225.363281 799.066406 225.765625 798.351562 226.242188 C 797.636719 226.71875 796.976562 227.261719 796.367188 227.867188 C 795.761719 228.476562 795.21875 229.136719 794.742188 229.851562 C 794.265625 230.5625 793.863281 231.316406 793.53125 232.109375 C 793.203125 232.902344 792.957031 233.722656 792.789062 234.5625 C 792.621094 235.40625 792.539062 236.253906 792.539062 237.113281 C 792.539062 237.972656 792.621094 238.824219 792.789062 239.664062 C 792.957031 240.507812 793.203125 241.324219 793.53125 242.117188 C 793.863281 242.910156 794.265625 243.664062 794.742188 244.378906 C 795.21875 245.089844 795.761719 245.753906 796.367188 246.359375 C 796.976562 246.964844 797.636719 247.507812 798.351562 247.984375 C 799.066406 248.460938 799.820312 248.863281 800.613281 249.195312 C 801.40625 249.523438 802.222656 249.769531 803.066406 249.9375 C 803.910156 250.105469 804.757812 250.1875 805.617188 250.1875 L 865.066406 250.1875 L 865.066406 302.488281 L 805.617188 302.488281 C 804.757812 302.488281 803.910156 302.574219 803.066406 302.742188 C 802.222656 302.90625 801.40625 303.15625 800.613281 303.484375 C 799.820312 303.8125 799.066406 304.214844 798.351562 304.691406 C 797.636719 305.167969 796.976562 305.710938 796.367188 306.320312 C 795.761719 306.925781 795.21875 307.585938 794.742188 308.300781 C 794.265625 309.015625 793.863281 309.765625 793.53125 310.558594 C 793.203125 311.355469 792.957031 312.171875 792.789062 313.011719 C 792.621094 313.855469 792.539062 314.707031 792.539062 315.5625 C 792.539062 316.421875 792.621094 317.273438 792.789062 318.113281 C 792.957031 318.957031 793.203125 319.773438 793.53125 320.566406 C 793.863281 321.359375 794.265625 322.113281 794.742188 322.828125 C 795.21875 323.542969 795.761719 324.203125 796.367188 324.808594 C 796.976562 325.417969 797.636719 325.957031 798.351562 326.4375 C 799.066406 326.914062 799.820312 327.316406 800.613281 327.644531 C 801.40625 327.972656 802.222656 328.21875 803.066406 328.386719 C 803.910156 328.554688 804.757812 328.640625 805.617188 328.640625 L 865.066406 328.640625 L 865.066406 380.941406 L 805.617188 380.941406 C 804.757812 380.941406 803.910156 381.023438 803.066406 381.191406 C 802.222656 381.359375 801.40625 381.605469 800.613281 381.933594 C 799.820312 382.261719 799.066406 382.667969 798.351562 383.144531 C 797.636719 383.621094 796.976562 384.160156 796.367188 384.769531 C 795.761719 385.375 795.21875 386.035156 794.742188 386.75 C 794.265625 387.464844 793.863281 388.21875 793.53125 389.011719 C 793.203125 389.804688 792.957031 390.621094 792.789062 391.464844 C 792.621094 392.304688 792.539062 393.15625 792.539062 394.015625 C 792.539062 394.871094 792.621094 395.722656 792.789062 396.566406 C 792.957031 397.40625 793.203125 398.226562 793.53125 399.019531 C 793.863281 399.8125 794.265625 400.566406 794.742188 401.277344 C 795.21875 401.992188 795.761719 402.652344 796.367188 403.261719 C 796.976562 403.867188 797.636719 404.410156 798.351562 404.886719 C 799.066406 405.363281 799.820312 405.765625 800.613281 406.09375 C 801.40625 406.421875 802.222656 406.671875 803.066406 406.839844 C 803.910156 407.003906 804.757812 407.089844 805.617188 407.089844 L 864.734375 407.089844 C 864.632812 409.199219 864.480469 411.300781 864.28125 413.402344 C 864.078125 415.503906 863.828125 417.597656 863.527344 419.683594 C 863.226562 421.773438 862.875 423.855469 862.476562 425.925781 C 862.074219 428 861.625 430.058594 861.128906 432.109375 C 860.628906 434.160156 860.082031 436.199219 859.488281 438.222656 C 858.894531 440.246094 858.25 442.257812 857.558594 444.25 C 856.867188 446.242188 856.128906 448.21875 855.34375 450.179688 C 854.5625 452.136719 853.730469 454.078125 852.851562 455.996094 C 851.976562 457.914062 851.050781 459.8125 850.085938 461.6875 C 849.117188 463.5625 848.105469 465.414062 847.050781 467.242188 C 845.992188 469.070312 844.894531 470.871094 843.753906 472.644531 C 842.613281 474.421875 841.429688 476.167969 840.203125 477.886719 C 838.980469 479.605469 837.714844 481.292969 836.410156 482.953125 C 835.105469 484.609375 833.761719 486.234375 832.378906 487.832031 C 830.996094 489.425781 829.574219 490.984375 828.117188 492.511719 C 826.660156 494.039062 825.167969 495.53125 823.640625 496.988281 C 822.113281 498.441406 820.550781 499.863281 818.953125 501.242188 C 817.359375 502.625 815.730469 503.96875 814.074219 505.273438 C 812.414062 506.578125 810.722656 507.839844 809.003906 509.066406 C 807.285156 510.289062 805.535156 511.46875 803.761719 512.609375 C 801.984375 513.75 800.183594 514.847656 798.355469 515.90625 C 796.527344 516.960938 794.671875 517.96875 792.796875 518.9375 C 790.921875 519.902344 789.023438 520.824219 787.101562 521.703125 C 785.179688 522.578125 783.242188 523.410156 781.28125 524.191406 C 779.320312 524.976562 777.34375 525.714844 775.347656 526.402344 C 773.355469 527.09375 771.34375 527.734375 769.320312 528.332031 C 767.292969 528.925781 765.253906 529.472656 763.203125 529.96875 C 761.152344 530.464844 759.089844 530.914062 757.015625 531.3125 C 754.945312 531.710938 752.863281 532.0625 750.773438 532.363281 C 748.683594 532.664062 746.589844 532.914062 744.488281 533.113281 C 742.386719 533.3125 740.28125 533.464844 738.171875 533.566406 C 736.0625 533.664062 733.953125 533.714844 731.84375 533.714844 C 729.730469 533.714844 727.621094 533.664062 725.511719 533.566406 C 723.40625 533.464844 721.300781 533.3125 719.199219 533.113281 C 717.097656 532.914062 715 532.664062 712.910156 532.363281 C 710.820312 532.0625 708.742188 531.710938 706.667969 531.3125 C 704.59375 530.914062 702.53125 530.464844 700.480469 529.96875 C 698.429688 529.472656 696.390625 528.925781 694.367188 528.332031 C 692.339844 527.734375 690.332031 527.09375 688.335938 526.402344 C 686.339844 525.714844 684.363281 524.976562 682.402344 524.191406 C 680.441406 523.410156 678.503906 522.578125 676.582031 521.703125 C 674.664062 520.824219 672.765625 519.902344 670.886719 518.9375 C 669.011719 517.96875 667.160156 516.960938 665.332031 515.90625 C 663.503906 514.847656 661.699219 513.75 659.925781 512.609375 C 658.148438 511.46875 656.402344 510.289062 654.679688 509.066406 C 652.960938 507.839844 651.273438 506.578125 649.613281 505.273438 C 647.953125 503.96875 646.324219 502.625 644.730469 501.242188 C 643.132812 499.863281 641.570312 498.441406 640.042969 496.988281 C 638.515625 495.53125 637.023438 494.039062 635.566406 492.511719 C 634.109375 490.984375 632.691406 489.425781 631.308594 487.832031 C 629.925781 486.234375 628.582031 484.609375 627.277344 482.953125 C 625.96875 481.292969 624.707031 479.605469 623.480469 477.886719 C 622.257812 476.167969 621.074219 474.421875 619.929688 472.644531 C 618.789062 470.871094 617.691406 469.070312 616.636719 467.242188 C 615.578125 465.414062 614.566406 463.5625 613.601562 461.6875 C 612.632812 459.8125 611.710938 457.914062 610.832031 455.996094 C 609.957031 454.078125 609.125 452.136719 608.339844 450.179688 C 607.554688 448.21875 606.816406 446.242188 606.125 444.25 C 605.433594 442.257812 604.792969 440.246094 604.195312 438.222656 C 603.601562 436.199219 603.054688 434.160156 602.554688 432.109375 C 602.058594 430.058594 601.609375 428 601.210938 425.925781 C 600.808594 423.855469 600.457031 421.773438 600.15625 419.683594 C 599.855469 417.597656 599.605469 415.503906 599.40625 413.402344 C 599.203125 411.300781 599.050781 409.199219 598.953125 407.089844 L 658.066406 407.089844 C 658.925781 407.089844 659.777344 407.003906 660.617188 406.839844 C 661.460938 406.671875 662.277344 406.421875 663.070312 406.09375 C 663.867188 405.765625 664.621094 405.363281 665.332031 404.886719 C 666.046875 404.410156 666.707031 403.867188 667.316406 403.261719 C 667.921875 402.652344 668.464844 401.992188 668.941406 401.277344 C 669.417969 400.566406 669.824219 399.8125 670.152344 399.019531 C 670.480469 398.226562 670.726562 397.40625 670.894531 396.566406 C 671.0625 395.722656 671.148438 394.871094 671.148438 394.015625 C 671.148438 393.15625 671.0625 392.304688 670.894531 391.464844 C 670.726562 390.621094 670.480469 389.804688 670.152344 389.011719 C 669.824219 388.21875 669.417969 387.464844 668.941406 386.75 C 668.464844 386.035156 667.921875 385.375 667.316406 384.769531 C 666.707031 384.160156 666.046875 383.621094 665.332031 383.144531 C 664.621094 382.667969 663.867188 382.261719 663.070312 381.933594 C 662.277344 381.605469 661.460938 381.359375 660.617188 381.191406 C 659.777344 381.023438 658.925781 380.941406 658.066406 380.941406 L 598.621094 380.941406 L 598.621094 328.640625 L 658.066406 328.640625 C 658.925781 328.640625 659.777344 328.554688 660.617188 328.386719 C 661.460938 328.21875 662.277344 327.972656 663.070312 327.644531 C 663.867188 327.316406 664.621094 326.914062 665.332031 326.4375 C 666.046875 325.957031 666.707031 325.417969 667.316406 324.808594 C 667.921875 324.203125 668.464844 323.542969 668.941406 322.828125 C 669.417969 322.113281 669.824219 321.359375 670.152344 320.566406 C 670.480469 319.773438 670.726562 318.957031 670.894531 318.113281 C 671.0625 317.273438 671.148438 316.421875 671.148438 315.5625 C 671.148438 314.707031 671.0625 313.855469 670.894531 313.011719 C 670.726562 312.171875 670.480469 311.355469 670.152344 310.558594 C 669.824219 309.765625 669.417969 309.015625 668.941406 308.300781 C 668.464844 307.585938 667.921875 306.925781 667.316406 306.320312 C 666.707031 305.710938 666.046875 305.167969 665.332031 304.691406 C 664.621094 304.214844 663.867188 303.8125 663.070312 303.484375 C 662.277344 303.15625 661.460938 302.90625 660.617188 302.742188 C 659.777344 302.574219 658.925781 302.488281 658.066406 302.488281 L 598.621094 302.488281 Z M 533.21875 400.550781 L 533.21875 328.640625 L 572.457031 328.640625 L 572.457031 400.550781 C 572.460938 403.160156 572.523438 405.765625 572.652344 408.367188 C 572.78125 410.972656 572.976562 413.570312 573.230469 416.164062 C 573.488281 418.757812 573.808594 421.34375 574.191406 423.921875 C 574.574219 426.5 575.019531 429.070312 575.53125 431.625 C 576.039062 434.183594 576.613281 436.722656 577.246094 439.253906 C 577.882812 441.78125 578.578125 444.292969 579.335938 446.789062 C 580.09375 449.28125 580.910156 451.753906 581.789062 454.210938 C 582.667969 456.664062 583.609375 459.09375 584.605469 461.503906 C 585.605469 463.910156 586.664062 466.292969 587.777344 468.648438 C 588.894531 471.007812 590.066406 473.332031 591.296875 475.632812 C 592.527344 477.929688 593.8125 480.199219 595.152344 482.433594 C 596.496094 484.667969 597.890625 486.871094 599.339844 489.039062 C 600.789062 491.203125 602.289062 493.335938 603.84375 495.429688 C 605.398438 497.523438 607 499.574219 608.65625 501.589844 C 610.3125 503.605469 612.015625 505.578125 613.765625 507.507812 C 615.519531 509.441406 617.316406 511.328125 619.160156 513.171875 C 621.003906 515.015625 622.894531 516.808594 624.824219 518.5625 C 626.757812 520.3125 628.734375 522.011719 630.75 523.667969 C 632.765625 525.320312 634.820312 526.921875 636.914062 528.476562 C 639.011719 530.027344 641.140625 531.527344 643.3125 532.976562 C 645.480469 534.425781 647.683594 535.816406 649.917969 537.15625 C 652.15625 538.496094 654.425781 539.78125 656.722656 541.011719 C 659.023438 542.238281 661.351562 543.410156 663.710938 544.523438 C 666.070312 545.640625 668.453125 546.695312 670.863281 547.691406 C 673.269531 548.691406 675.703125 549.628906 678.160156 550.503906 C 680.613281 551.382812 683.089844 552.199219 685.585938 552.957031 C 688.082031 553.714844 690.59375 554.410156 693.125 555.042969 C 695.652344 555.675781 698.195312 556.246094 700.753906 556.753906 C 703.3125 557.261719 705.882812 557.707031 708.460938 558.089844 C 711.039062 558.472656 713.628906 558.792969 716.222656 559.046875 C 718.820312 559.304688 721.417969 559.496094 724.023438 559.621094 C 726.628906 559.75 729.234375 559.8125 731.84375 559.8125 C 734.449219 559.8125 737.054688 559.75 739.660156 559.621094 C 742.265625 559.496094 744.867188 559.304688 747.460938 559.046875 C 750.054688 558.792969 752.644531 558.472656 755.222656 558.089844 C 757.804688 557.707031 760.371094 557.261719 762.929688 556.753906 C 765.488281 556.246094 768.03125 555.675781 770.5625 555.042969 C 773.089844 554.410156 775.601562 553.714844 778.097656 552.957031 C 780.59375 552.199219 783.070312 551.382812 785.527344 550.503906 C 787.980469 549.628906 790.414062 548.691406 792.824219 547.691406 C 795.230469 546.695312 797.617188 545.640625 799.972656 544.523438 C 802.332031 543.410156 804.660156 542.238281 806.960938 541.011719 C 809.261719 539.78125 811.527344 538.496094 813.765625 537.15625 C 816.003906 535.816406 818.207031 534.425781 820.375 532.976562 C 822.542969 531.527344 824.675781 530.027344 826.769531 528.476562 C 828.863281 526.921875 830.917969 525.320312 832.933594 523.667969 C 834.953125 522.011719 836.925781 520.3125 838.859375 518.5625 C 840.792969 516.808594 842.679688 515.015625 844.523438 513.171875 C 846.367188 511.328125 848.167969 509.441406 849.917969 507.507812 C 851.667969 505.578125 853.371094 503.605469 855.027344 501.589844 C 856.683594 499.574219 858.285156 497.523438 859.839844 495.429688 C 861.394531 493.335938 862.894531 491.203125 864.34375 489.039062 C 865.792969 486.871094 867.191406 484.667969 868.53125 482.433594 C 869.871094 480.199219 871.15625 477.929688 872.386719 475.632812 C 873.617188 473.332031 874.789062 471.007812 875.90625 468.648438 C 877.023438 466.292969 878.078125 463.910156 879.078125 461.503906 C 880.074219 459.09375 881.015625 456.664062 881.894531 454.210938 C 882.773438 451.753906 883.59375 449.28125 884.351562 446.789062 C 885.109375 444.292969 885.804688 441.78125 886.4375 439.253906 C 887.074219 436.722656 887.644531 434.183594 888.152344 431.625 C 888.664062 429.070312 889.109375 426.5 889.492188 423.921875 C 889.875 421.34375 890.195312 418.757812 890.453125 416.164062 C 890.710938 413.570312 890.902344 410.972656 891.03125 408.367188 C 891.160156 405.765625 891.226562 403.160156 891.226562 400.550781 L 891.226562 328.640625 L 930.46875 328.640625 L 930.46875 400.550781 C 930.46875 403.796875 930.386719 407.046875 930.226562 410.289062 C 930.066406 413.535156 929.828125 416.777344 929.511719 420.007812 C 929.191406 423.242188 928.792969 426.46875 928.316406 429.679688 C 927.839844 432.894531 927.285156 436.09375 926.652344 439.28125 C 926.015625 442.46875 925.304688 445.640625 924.515625 448.789062 C 923.726562 451.941406 922.859375 455.074219 921.914062 458.183594 C 920.96875 461.292969 919.953125 464.375 918.855469 467.4375 C 917.761719 470.496094 916.589844 473.527344 915.347656 476.527344 C 914.105469 479.53125 912.785156 482.5 911.398438 485.4375 C 910.007812 488.375 908.546875 491.277344 907.015625 494.140625 C 905.480469 497.007812 903.878906 499.832031 902.207031 502.621094 C 900.539062 505.40625 898.796875 508.152344 896.992188 510.851562 C 895.1875 513.554688 893.316406 516.210938 891.378906 518.820312 C 889.441406 521.429688 887.445312 523.992188 885.382812 526.503906 C 883.320312 529.015625 881.195312 531.472656 879.011719 533.882812 C 876.832031 536.289062 874.589844 538.640625 872.292969 540.941406 C 869.992188 543.238281 867.640625 545.476562 865.230469 547.660156 C 862.820312 549.839844 860.359375 551.960938 857.847656 554.023438 C 855.335938 556.085938 852.773438 558.082031 850.164062 560.019531 C 847.550781 561.957031 844.894531 563.824219 842.191406 565.628906 C 839.488281 567.4375 836.742188 569.171875 833.957031 570.84375 C 831.167969 572.515625 828.339844 574.117188 825.472656 575.648438 C 822.605469 577.179688 819.703125 578.640625 816.765625 580.027344 C 813.828125 581.417969 810.855469 582.734375 807.851562 583.976562 C 804.847656 585.222656 801.816406 586.390625 798.757812 587.484375 C 795.695312 588.578125 792.609375 589.597656 789.5 590.542969 C 786.390625 591.484375 783.257812 592.351562 780.105469 593.140625 C 776.949219 593.929688 773.78125 594.640625 770.59375 595.277344 C 767.402344 595.910156 764.203125 596.464844 760.988281 596.941406 C 757.769531 597.417969 754.546875 597.816406 751.3125 598.136719 C 748.074219 598.453125 744.835938 598.691406 741.589844 598.851562 C 738.339844 599.011719 735.09375 599.089844 731.84375 599.089844 C 728.589844 599.089844 725.34375 599.011719 722.097656 598.851562 C 718.847656 598.691406 715.609375 598.453125 712.375 598.136719 C 709.136719 597.816406 705.914062 597.417969 702.699219 596.941406 C 699.480469 596.464844 696.28125 595.910156 693.09375 595.277344 C 689.902344 594.640625 686.734375 593.929688 683.582031 593.140625 C 680.425781 592.351562 677.296875 591.484375 674.183594 590.542969 C 671.074219 589.597656 667.988281 588.578125 664.925781 587.484375 C 661.867188 586.390625 658.835938 585.222656 655.832031 583.976562 C 652.828125 582.734375 649.859375 581.417969 646.917969 580.027344 C 643.980469 578.640625 641.078125 577.179688 638.210938 575.648438 C 635.34375 574.117188 632.515625 572.515625 629.726562 570.84375 C 626.941406 569.175781 624.195312 567.4375 621.492188 565.628906 C 618.789062 563.824219 616.132812 561.957031 613.519531 560.019531 C 610.910156 558.085938 608.347656 556.085938 605.835938 554.023438 C 603.324219 551.960938 600.863281 549.839844 598.453125 547.660156 C 596.046875 545.476562 593.691406 543.238281 591.394531 540.941406 C 589.09375 538.640625 586.855469 536.289062 584.671875 533.882812 C 582.488281 531.472656 580.363281 529.015625 578.304688 526.503906 C 576.242188 523.992188 574.242188 521.429688 572.304688 518.820312 C 570.367188 516.210938 568.496094 513.554688 566.691406 510.851562 C 564.886719 508.152344 563.148438 505.40625 561.476562 502.621094 C 559.804688 499.832031 558.203125 497.007812 556.671875 494.140625 C 555.136719 491.277344 553.675781 488.375 552.289062 485.4375 C 550.898438 482.5 549.582031 479.53125 548.335938 476.527344 C 547.09375 473.527344 545.921875 470.496094 544.828125 467.4375 C 543.734375 464.375 542.714844 461.292969 541.769531 458.183594 C 540.828125 455.074219 539.960938 451.941406 539.167969 448.789062 C 538.378906 445.640625 537.667969 442.46875 537.035156 439.28125 C 536.398438 436.09375 535.84375 432.894531 535.367188 429.679688 C 534.890625 426.46875 534.492188 423.242188 534.171875 420.007812 C 533.855469 416.777344 533.617188 413.535156 533.457031 410.289062 C 533.296875 407.046875 533.21875 403.796875 533.21875 400.550781 Z M 533.21875 400.550781 " fill-opacity="1" fill-rule="nonzero"/></g></svg>