<svg xmlns="http://www.w3.org/2000/svg" xmlns:xlink="http://www.w3.org/1999/xlink" width="200" zoomAndPan="magnify" viewBox="0 0 150 84.375" height="112.5" preserveAspectRatio="xMidYMid meet" version="1.0"><defs><clipPath id="4a4bbbb9ec"><path d="M32.813 0h84.375v84.375H32.813Zm0 0" clip-rule="nonzero"/></clipPath></defs><g clip-path="url(#4a4bbbb9ec)"><path fill="#ff9561" d="M117.194 42.191a42.292 42.292 0 0 1 -0.203 4.135 42.5 42.5 0 0 1 -0.253 2.055 41.667 41.667 0 0 1 -0.354 2.04 41.771 41.771 0 0 1 -0.454 2.021 41.875 41.875 0 0 1 -0.552 1.996 42.604 42.604 0 0 1 -0.649 1.966 42.5 42.5 0 0 1 -0.746 1.932 42.396 42.396 0 0 1 -0.839 1.893 42.5 42.5 0 0 1 -0.931 1.85 41.771 41.771 0 0 1 -1.02 1.802 42.209 42.209 0 0 1 -2.3 3.443 42.5 42.5 0 0 1 -1.274 1.633 42.114 42.114 0 0 1 -2.781 3.068 42.083 42.083 0 0 1 -3.068 2.781 42.5 42.5 0 0 1 -1.632 1.274 42.188 42.188 0 0 1 -3.443 2.3 41.771 41.771 0 0 1 -1.802 1.021 42.5 42.5 0 0 1 -1.85 0.931 42.396 42.396 0 0 1 -1.893 0.839 42.5 42.5 0 0 1 -1.932 0.746 42.604 42.604 0 0 1 -1.966 0.649 41.875 41.875 0 0 1 -1.996 0.552 41.771 41.771 0 0 1 -2.021 0.454 41.667 41.667 0 0 1 -2.04 0.354 42.213 42.213 0 0 1 -12.381 0 41.771 41.771 0 0 1 -2.041 -0.354 41.875 41.875 0 0 1 -2.02 -0.454 41.875 41.875 0 0 1 -1.996 -0.552 42.708 42.708 0 0 1 -1.967 -0.649 42.188 42.188 0 0 1 -3.825 -1.584 42.292 42.292 0 0 1 -1.85 -0.932 41.771 41.771 0 0 1 -1.802 -1.021 42.209 42.209 0 0 1 -3.443 -2.3 42.5 42.5 0 0 1 -1.633 -1.274 42.708 42.708 0 0 1 -1.568 -1.353 42.5 42.5 0 0 1 -1.5 -1.428 42.387 42.387 0 0 1 -2.78 -3.068 42.5 42.5 0 0 1 -1.274 -1.632 41.771 41.771 0 0 1 -1.192 -1.693 41.771 41.771 0 0 1 -1.108 -1.75 41.771 41.771 0 0 1 -1.021 -1.802 42.5 42.5 0 0 1 -0.931 -1.85 42.396 42.396 0 0 1 -0.839 -1.893 42.083 42.083 0 0 1 -1.395 -3.899 42.396 42.396 0 0 1 -0.553 -1.996 42.292 42.292 0 0 1 -0.808 -4.061 42.213 42.213 0 0 1 0.808 -16.442 42.396 42.396 0 0 1 1.202 -3.962 42.083 42.083 0 0 1 0.745 -1.932 42.239 42.239 0 0 1 1.77 -3.743 41.771 41.771 0 0 1 1.021 -1.802 41.771 41.771 0 0 1 1.108 -1.75 41.771 41.771 0 0 1 1.192 -1.693 42.5 42.5 0 0 1 1.274 -1.633 42.708 42.708 0 0 1 1.353 -1.568 42.813 42.813 0 0 1 1.428 -1.5 42.813 42.813 0 0 1 1.5 -1.428q0.768 -0.695 1.568 -1.353a42.5 42.5 0 0 1 1.633 -1.274 41.771 41.771 0 0 1 1.693 -1.192 41.771 41.771 0 0 1 1.75 -1.108 41.771 41.771 0 0 1 1.802 -1.021 42.24 42.24 0 0 1 5.675 -2.516 42.351 42.351 0 0 1 3.962 -1.202A42.248 42.248 0 0 1 70.868 0.203 42.188 42.188 0 0 1 75.003 0a42.292 42.292 0 0 1 4.135 0.203 42.145 42.145 0 0 1 8.112 1.614q0.991 0.3 1.966 0.649a42.083 42.083 0 0 1 1.932 0.745 42.396 42.396 0 0 1 1.893 0.839 42.5 42.5 0 0 1 1.85 0.931 41.771 41.771 0 0 1 1.802 1.021 41.771 41.771 0 0 1 1.75 1.108 41.771 41.771 0 0 1 1.693 1.192 42.5 42.5 0 0 1 1.632 1.274 42.396 42.396 0 0 1 3.068 2.78 42.5 42.5 0 0 1 1.428 1.5q0.695 0.768 1.353 1.568a42.5 42.5 0 0 1 1.274 1.633 42.188 42.188 0 0 1 2.3 3.443 41.771 41.771 0 0 1 1.021 1.802 42.292 42.292 0 0 1 0.931 1.85 42.396 42.396 0 0 1 0.839 1.893 42.5 42.5 0 0 1 0.746 1.932 42.604 42.604 0 0 1 0.649 1.966 41.875 41.875 0 0 1 0.552 1.996 41.875 41.875 0 0 1 0.454 2.02 41.771 41.771 0 0 1 0.354 2.041 42.176 42.176 0 0 1 0.457 6.191m0 0" fill-opacity="1" fill-rule="nonzero"/></g><path fill="#002c5c" d="M85.796 18.548C83.656 10.331 59.242 7.077 55.993 26.657c-3.25 19.58 -14.744 35.91 11.176 39.873s31.469 -5.628 29.883 -18.231c-1.586 -12.603 -4.518 -30.491 -11.256 -29.751m0 0" fill-opacity="1" fill-rule="nonzero"/><path fill="#00669b" d="M105.293 71.586a42.708 42.708 0 0 1 -1.508 1.477 42.604 42.604 0 0 1 -1.58 1.4 42.083 42.083 0 0 1 -3.36 2.555 42.5 42.5 0 0 1 -1.772 1.149 42.396 42.396 0 0 1 -1.827 1.058 42.271 42.271 0 0 1 -5.765 2.61 42.604 42.604 0 0 1 -2 0.674 42.396 42.396 0 0 1 -2.032 0.573A42.222 42.222 0 0 1 79.219 84.185a42.396 42.396 0 0 1 -4.216 0.211q-1.056 0 -2.111 -0.053a42.396 42.396 0 0 1 -2.105 -0.158 42.222 42.222 0 0 1 -6.231 -1.102 42.396 42.396 0 0 1 -2.032 -0.573q-1.009 -0.313 -2.001 -0.674a42.396 42.396 0 0 1 -3.888 -1.644 42.708 42.708 0 0 1 -1.877 -0.966 42.708 42.708 0 0 1 -1.827 -1.058 42.708 42.708 0 0 1 -1.771 -1.149 42.188 42.188 0 0 1 -3.36 -2.555 42.604 42.604 0 0 1 -1.58 -1.4 42.708 42.708 0 0 1 -1.508 -1.477 32.708 32.708 0 0 1 1.017 -2.181 32.708 32.708 0 0 1 1.173 -2.1 32.917 32.917 0 0 1 1.324 -2.009 33.333 33.333 0 0 1 0.717 -0.967 32.188 32.188 0 0 1 0.751 -0.94 33.542 33.542 0 0 1 0.785 -0.912q0.401 -0.449 0.818 -0.882a32.292 32.292 0 0 1 0.85 -0.852q0.433 -0.418 0.88 -0.82a32.731 32.731 0 0 1 1.848 -1.541 33.333 33.333 0 0 1 0.965 -0.719 33.125 33.125 0 0 1 0.99 -0.683 32.633 32.633 0 0 1 2.053 -1.255 32.708 32.708 0 0 1 2.139 -1.102 33.125 33.125 0 0 1 2.214 -0.943 33.438 33.438 0 0 1 1.131 -0.41 32.292 32.292 0 0 1 1.145 -0.368A32.604 32.604 0 0 1 67.841 52.292q0.587 -0.131 1.179 -0.241a32.5 32.5 0 0 1 1.187 -0.197 32.604 32.604 0 0 1 2.392 -0.264 32.917 32.917 0 0 1 3.608 -0.066 32.917 32.917 0 0 1 3.593 0.33q0.595 0.088 1.187 0.197 0.591 0.109 1.179 0.241 0.587 0.131 1.169 0.284 0.582 0.152 1.158 0.326a32.604 32.604 0 0 1 1.146 0.368 33.75 33.75 0 0 1 1.131 0.41 33.438 33.438 0 0 1 1.115 0.451 32.708 32.708 0 0 1 1.098 0.492 32.723 32.723 0 0 1 2.139 1.102 33.125 33.125 0 0 1 1.038 0.609A33.438 33.438 0 0 1 93.175 56.979a33.646 33.646 0 0 1 0.99 0.683 33.854 33.854 0 0 1 0.965 0.719 32.708 32.708 0 0 1 2.728 2.362 32.292 32.292 0 0 1 0.85 0.852 32.292 32.292 0 0 1 0.818 0.882 32.813 32.813 0 0 1 1.536 1.852q0.367 0.477 0.716 0.967a32.396 32.396 0 0 1 1.324 2.009q0.313 0.514 0.606 1.039a33.144 33.144 0 0 1 1.096 2.142 32.708 32.708 0 0 1 0.489 1.1m0 0" fill-opacity="1" fill-rule="nonzero"/><path fill="#ff9561" d="M74.987 42.191a5.927 5.927 0 0 1 1.724 0.256q0.28 0.084 0.549 0.196a5.963 5.963 0 0 1 1.027 0.549 5.938 5.938 0 0 1 0.468 0.347 5.833 5.833 0 0 1 0.432 0.391 5.833 5.833 0 0 1 0.391 0.432 5.932 5.932 0 0 1 1.093 2.044 6.042 6.042 0 0 1 0.142 0.566q0.057 0.286 0.085 0.577a5.938 5.938 0 0 1 0.028 0.582v5.24q0 0.292 -0.028 0.582a6.042 6.042 0 0 1 -0.085 0.577 5.938 5.938 0 0 1 -0.142 0.565 5.833 5.833 0 0 1 -0.196 0.549 5.938 5.938 0 0 1 -0.249 0.527 6.042 6.042 0 0 1 -0.299 0.5 6 6 0 0 1 -0.739 0.9 5.833 5.833 0 0 1 -0.432 0.391 5.833 5.833 0 0 1 -0.468 0.347 5.969 5.969 0 0 1 -1.027 0.549A5.906 5.906 0 0 1 76.146 59.198q-0.286 0.057 -0.577 0.085a5.938 5.938 0 0 1 -0.582 0.029 5.938 5.938 0 0 1 -1.159 -0.114 6.146 6.146 0 0 1 -0.566 -0.142 6.042 6.042 0 0 1 -0.549 -0.196 5.97 5.97 0 0 1 -1.027 -0.549 5.954 5.954 0 0 1 -1.939 -2.139 5.99 5.99 0 0 1 -0.445 -1.076 5.833 5.833 0 0 1 -0.142 -0.565 5.99 5.99 0 0 1 -0.114 -1.159v-5.24q0 -0.292 0.029 -0.582a5.969 5.969 0 0 1 0.227 -1.142 5.993 5.993 0 0 1 0.446 -1.076 5.938 5.938 0 0 1 0.3 -0.5 5.927 5.927 0 0 1 1.171 -1.292 6.042 6.042 0 0 1 0.468 -0.347 5.969 5.969 0 0 1 1.027 -0.549 6.017 6.017 0 0 1 1.115 -0.338 5.922 5.922 0 0 1 1.159 -0.114m0 0" fill-opacity="1" fill-rule="nonzero"/><path fill="#ff9561" d="M64.159 38.451a3.854 3.854 0 0 1 -0.018 0.367 3.792 3.792 0 0 1 -0.143 0.72 3.75 3.75 0 0 1 -0.124 0.346 3.698 3.698 0 0 1 -0.346 0.648 3.75 3.75 0 0 1 -0.219 0.295 3.542 3.542 0 0 1 -0.247 0.273 3.854 3.854 0 0 1 -0.272 0.247 3.75 3.75 0 0 1 -0.295 0.219 3.802 3.802 0 0 1 -0.648 0.346 3.75 3.75 0 0 1 -0.346 0.124 3.719 3.719 0 0 1 -0.72 0.143 3.698 3.698 0 0 1 -0.734 0 3.719 3.719 0 0 1 -0.721 -0.143 3.719 3.719 0 0 1 -0.678 -0.281 3.854 3.854 0 0 1 -0.315 -0.189 3.75 3.75 0 0 1 -0.295 -0.219 3.854 3.854 0 0 1 -0.272 -0.247 3.762 3.762 0 0 1 -0.655 -0.883 3.728 3.728 0 0 1 -0.281 -0.679 3.646 3.646 0 0 1 -0.089 -0.356 3.75 3.75 0 0 1 -0.054 -0.364 3.854 3.854 0 0 1 -0.018 -0.367q0 -0.184 0.018 -0.367 0.018 -0.183 0.054 -0.364 0.036 -0.18 0.089 -0.356a3.729 3.729 0 0 1 0.47 -0.994 3.75 3.75 0 0 1 0.466 -0.568 3.75 3.75 0 0 1 0.272 -0.247 3.698 3.698 0 0 1 0.611 -0.408 3.854 3.854 0 0 1 0.332 -0.157 3.717 3.717 0 0 1 0.703 -0.213 3.75 3.75 0 0 1 0.364 -0.054 3.646 3.646 0 0 1 0.367 -0.018 3.698 3.698 0 0 1 0.731 0.072 3.719 3.719 0 0 1 1.035 0.37q0.162 0.087 0.315 0.189c0.102 0.068 0.201 0.141 0.295 0.219a3.719 3.719 0 0 1 0.519 0.519 3.75 3.75 0 0 1 0.408 0.61 3.75 3.75 0 0 1 0.157 0.332c0.047 0.114 0.088 0.229 0.124 0.346q0.053 0.176 0.089 0.356 0.036 0.181 0.054 0.364a3.854 3.854 0 0 1 0.018 0.367m0 0" fill-opacity="1" fill-rule="nonzero"/><path fill="#ff9561" d="M92.959 38.451a3.854 3.854 0 0 1 -0.018 0.367 3.792 3.792 0 0 1 -0.143 0.72 3.75 3.75 0 0 1 -0.124 0.346 3.698 3.698 0 0 1 -0.346 0.648 3.646 3.646 0 0 1 -0.219 0.295 3.542 3.542 0 0 1 -0.247 0.273 3.854 3.854 0 0 1 -0.272 0.247 3.732 3.732 0 0 1 -0.611 0.408 3.75 3.75 0 0 1 -0.332 0.158 3.75 3.75 0 0 1 -0.703 0.213q-0.18 0.036 -0.363 0.054a3.688 3.688 0 0 1 -0.734 0A3.681 3.681 0 0 1 88.125 42.035a3.688 3.688 0 0 1 -0.679 -0.281 3.854 3.854 0 0 1 -0.315 -0.189 3.75 3.75 0 0 1 -0.295 -0.219 3.854 3.854 0 0 1 -0.272 -0.247 3.762 3.762 0 0 1 -0.655 -0.883 3.728 3.728 0 0 1 -0.281 -0.679 3.677 3.677 0 0 1 -0.143 -0.72 3.688 3.688 0 0 1 0 -0.734 3.646 3.646 0 0 1 0.054 -0.364q0.036 -0.18 0.09 -0.356a3.729 3.729 0 0 1 0.47 -0.994 3.75 3.75 0 0 1 0.466 -0.568 3.75 3.75 0 0 1 0.272 -0.247 3.698 3.698 0 0 1 0.611 -0.408 3.854 3.854 0 0 1 0.333 -0.157 3.854 3.854 0 0 1 0.346 -0.124 3.788 3.788 0 0 1 0.72 -0.143 3.646 3.646 0 0 1 0.367 -0.018 3.688 3.688 0 0 1 0.731 0.072 3.719 3.719 0 0 1 1.035 0.37 3.729 3.729 0 0 1 1.13 0.927q0.117 0.142 0.219 0.295c0.068 0.102 0.131 0.208 0.189 0.315a3.75 3.75 0 0 1 0.157 0.332q0.071 0.17 0.124 0.346 0.053 0.176 0.089 0.356 0.036 0.181 0.054 0.364a3.854 3.854 0 0 1 0.018 0.367m0 0" fill-opacity="1" fill-rule="nonzero"/><path fill="#ffc9ac" d="M75.003 18.548q0.358 0 0.716 0.017 0.358 0.018 0.714 0.053a14.375 14.375 0 0 1 1.416 0.21 14.688 14.688 0 0 1 2.069 0.573c0.225 0.081 0.448 0.166 0.668 0.258a14.375 14.375 0 0 1 0.655 0.29q0.323 0.153 0.64 0.322 0.316 0.169 0.623 0.353a14.583 14.583 0 0 1 0.605 0.383 14.688 14.688 0 0 1 1.15 0.853q0.277 0.227 0.542 0.468 0.266 0.241 0.519 0.494 0.253 0.253 0.494 0.519 0.241 0.266 0.468 0.542a15.104 15.104 0 0 1 0.441 0.565 14.271 14.271 0 0 1 0.412 0.586q0.199 0.298 0.383 0.605t0.353 0.623a14.688 14.688 0 0 1 0.322 0.64q0.153 0.324 0.29 0.655a14.167 14.167 0 0 1 0.258 0.669 14.583 14.583 0 0 1 0.225 0.68 14.672 14.672 0 0 1 0.348 1.389 14.896 14.896 0 0 1 0.21 1.416c0.023 0.238 0.041 0.476 0.053 0.714 0.012 0.239 0.018 0.477 0.018 0.716v3.772q0 0.358 -0.018 0.716a14.479 14.479 0 0 1 -0.14 1.425 14.896 14.896 0 0 1 -0.122 0.706 14.688 14.688 0 0 1 -0.348 1.389 14.792 14.792 0 0 1 -0.483 1.348 14.896 14.896 0 0 1 -0.29 0.655 14.688 14.688 0 0 1 -1.058 1.868 14.271 14.271 0 0 1 -0.412 0.586 14.792 14.792 0 0 1 -0.441 0.565 14.479 14.479 0 0 1 -0.468 0.542c-0.161 0.177 -0.325 0.35 -0.494 0.519a14.479 14.479 0 0 1 -1.061 0.962 14.271 14.271 0 0 1 -0.565 0.441 14.271 14.271 0 0 1 -0.586 0.413c-0.199 0.133 -0.4 0.26 -0.605 0.383a14.688 14.688 0 0 1 -0.623 0.353 15.208 15.208 0 0 1 -0.64 0.322 14.375 14.375 0 0 1 -0.655 0.29 14.583 14.583 0 0 1 -0.668 0.258q-0.337 0.12 -0.68 0.225a14.672 14.672 0 0 1 -1.389 0.348 14.419 14.419 0 0 1 -1.416 0.21 14.479 14.479 0 0 1 -1.43 0.07 14.479 14.479 0 0 1 -1.43 -0.07 14.375 14.375 0 0 1 -0.711 -0.087 14.688 14.688 0 0 1 -1.405 -0.279 14.583 14.583 0 0 1 -0.69 -0.191 15.417 15.417 0 0 1 -0.68 -0.225 14.583 14.583 0 0 1 -0.668 -0.258A14.676 14.676 0 0 1 68.125 49.779a14.688 14.688 0 0 1 -1.228 -0.736 14.271 14.271 0 0 1 -0.585 -0.413 14.063 14.063 0 0 1 -0.565 -0.441 14.479 14.479 0 0 1 -0.542 -0.468 14.896 14.896 0 0 1 -1.012 -1.013 14.479 14.479 0 0 1 -0.468 -0.542 14.063 14.063 0 0 1 -0.441 -0.565 14.271 14.271 0 0 1 -0.413 -0.585c-0.133 -0.199 -0.26 -0.4 -0.383 -0.605a14.688 14.688 0 0 1 -0.353 -0.623 15.208 15.208 0 0 1 -0.322 -0.64q-0.153 -0.324 -0.29 -0.655a14.792 14.792 0 0 1 -0.258 -0.668 14.271 14.271 0 0 1 -0.225 -0.68 14.672 14.672 0 0 1 -0.348 -1.389c-0.046 -0.234 -0.087 -0.47 -0.122 -0.706a14.375 14.375 0 0 1 -0.087 -0.711 14.479 14.479 0 0 1 -0.07 -1.43v-3.772a14.479 14.479 0 0 1 0.07 -1.43 14.375 14.375 0 0 1 0.21 -1.416 14.688 14.688 0 0 1 0.573 -2.069 14.615 14.615 0 0 1 1.606 -3.191 14.271 14.271 0 0 1 0.413 -0.585 14.271 14.271 0 0 1 0.441 -0.565q0.227 -0.276 0.468 -0.542 0.24 -0.266 0.494 -0.519a14.896 14.896 0 0 1 0.518 -0.494q0.266 -0.241 0.542 -0.468a14.702 14.702 0 0 1 1.15 -0.853 14.583 14.583 0 0 1 1.868 -1.058c0.216 -0.102 0.434 -0.199 0.655 -0.29a14.583 14.583 0 0 1 0.668 -0.258q0.338 -0.12 0.68 -0.225a14.689 14.689 0 0 1 1.389 -0.348c0.234 -0.046 0.469 -0.087 0.706 -0.122 0.236 -0.035 0.473 -0.064 0.711 -0.087a14.479 14.479 0 0 1 1.43 -0.07m0 0" fill-opacity="1" fill-rule="nonzero"/><path fill="#002c5c" d="M60.412 34.704c19.597 0.199 25.054 -10.899 25.054 -10.899s0.926 8.88 4.128 11.219c1.674 -9.316 -3.243 -17.797 -16.004 -18.431 -12.762 -0.634 -16.208 13.948 -13.178 18.111m0 0" fill-opacity="1" fill-rule="nonzero"/></svg>