<svg xmlns="http://www.w3.org/2000/svg" xmlns:xlink="http://www.w3.org/1999/xlink" width="200" zoomAndPan="magnify" viewBox="0 0 150 84.375" height="112.5" preserveAspectRatio="xMidYMid meet" version="1.0"><defs><clipPath id="6ad220564d"><path d="M33.204 0h83.594v83.594h-83.594Zm0 0" clip-rule="nonzero"/></clipPath></defs><g clip-path="url(#6ad220564d)"><path fill="#51b056" d="M116.795 41.797c0 0.684 -0.017 1.368 -0.05 2.051a41.728 41.728 0 0 1 -0.753 6.103 41.979 41.979 0 0 1 -0.449 2.001 41.875 41.875 0 0 1 -0.547 1.977 41.458 41.458 0 0 1 -0.644 1.948 41.729 41.729 0 0 1 -2.492 5.622 41.875 41.875 0 0 1 -1.011 1.785 41.701 41.701 0 0 1 -2.279 3.41 41.771 41.771 0 0 1 -1.262 1.617 41.979 41.979 0 0 1 -2.754 3.039 41.93 41.93 0 0 1 -3.039 2.755 41.771 41.771 0 0 1 -1.617 1.262 41.979 41.979 0 0 1 -1.677 1.181 41.869 41.869 0 0 1 -7.226 3.862 41.771 41.771 0 0 1 -1.914 0.738 41.539 41.539 0 0 1 -3.925 1.191 41.667 41.667 0 0 1 -4.023 0.8 42.188 42.188 0 0 1 -2.036 0.251 41.979 41.979 0 0 1 -2.046 0.151 42.083 42.083 0 0 1 -4.102 0 41.875 41.875 0 0 1 -4.082 -0.402 41.875 41.875 0 0 1 -6 -1.347 41.908 41.908 0 0 1 -3.862 -1.382 41.354 41.354 0 0 1 -1.875 -0.831 41.667 41.667 0 0 1 -3.617 -1.934 41.458 41.458 0 0 1 -1.733 -1.097 42.045 42.045 0 0 1 -3.295 -2.443 41.666 41.666 0 0 1 -3.039 -2.755 40.938 40.938 0 0 1 -1.414 -1.486c-0.459 -0.507 -0.906 -1.025 -1.34 -1.553a41.354 41.354 0 0 1 -1.262 -1.617 42.083 42.083 0 0 1 -1.181 -1.677 41.855 41.855 0 0 1 -3.031 -5.35 41.726 41.726 0 0 1 -2.213 -5.737 41.458 41.458 0 0 1 -0.547 -1.977 41.853 41.853 0 0 1 -1.051 -6.058 42.5 42.5 0 0 1 -0.151 -2.046 42.083 42.083 0 0 1 0 -4.102q0.051 -1.025 0.151 -2.046a41.853 41.853 0 0 1 1.051 -6.058 41.933 41.933 0 0 1 1.191 -3.925 41.729 41.729 0 0 1 3.503 -7.406 41.667 41.667 0 0 1 1.097 -1.733 42.083 42.083 0 0 1 1.181 -1.677c0.407 -0.55 0.828 -1.088 1.262 -1.617a41.563 41.563 0 0 1 1.34 -1.553 40.938 40.938 0 0 1 1.414 -1.486A41.667 41.667 0 0 1 50.104 8.227a41.458 41.458 0 0 1 1.677 -1.181 41.458 41.458 0 0 1 1.733 -1.097 41.688 41.688 0 0 1 3.617 -1.934 41.354 41.354 0 0 1 1.875 -0.831A41.875 41.875 0 0 1 62.869 1.802a41.563 41.563 0 0 1 1.977 -0.547 41.853 41.853 0 0 1 4.023 -0.8A41.884 41.884 0 0 1 72.95 0.053a42.083 42.083 0 0 1 4.102 0q1.025 0.051 2.046 0.151 1.021 0.101 2.036 0.251a41.664 41.664 0 0 1 4.023 0.8 41.563 41.563 0 0 1 3.925 1.191 41.729 41.729 0 0 1 5.622 2.492 41.458 41.458 0 0 1 1.785 1.011 41.979 41.979 0 0 1 1.733 1.097 41.979 41.979 0 0 1 1.677 1.181 41.719 41.719 0 0 1 4.656 4.016q0.725 0.725 1.414 1.486a41.979 41.979 0 0 1 1.34 1.553 41.771 41.771 0 0 1 1.262 1.617 41.667 41.667 0 0 1 3.29 5.195 41.875 41.875 0 0 1 0.922 1.832 41.667 41.667 0 0 1 1.569 3.789 41.458 41.458 0 0 1 0.644 1.948 41.875 41.875 0 0 1 0.547 1.977 41.979 41.979 0 0 1 0.8 4.023 41.771 41.771 0 0 1 0.402 4.082q0.05 1.025 0.05 2.051m0 0" fill-opacity="1" fill-rule="nonzero"/></g><path fill="#141311" d="M63.48 27.587v28.42c0 1.446 1.594 2.327 2.818 1.557l22.606 -14.21c1.147 -0.722 1.147 -2.393 0 -3.114L66.298 26.03c-1.224 -0.769 -2.818 0.111 -2.818 1.557m0 0" fill-opacity="1" fill-rule="nonzero"/></svg>